<?xml version="1.0" standalone="no"?>
<!DOCTYPE svg PUBLIC "-//W3C//DTD SVG 1.1//EN" "http://www.w3.org/Graphics/SVG/1.1/DTD/svg11.dtd" >
<svg xmlns="http://www.w3.org/2000/svg" xmlns:xlink="http://www.w3.org/1999/xlink" version="1.1">
<metadata></metadata>
<defs>
<font id="copperplateefbold" horiz-adv-x="1460" >
<font-face units-per-em="2048" ascent="1638" descent="-410" />
<missing-glyph horiz-adv-x="512" />
<glyph horiz-adv-x="0" />
<glyph horiz-adv-x="682" />
<glyph unicode=" "  horiz-adv-x="512" />
<glyph unicode="&#x09;" horiz-adv-x="512" />
<glyph unicode="&#xa0;" horiz-adv-x="512" />
<glyph unicode="!" horiz-adv-x="774" d="M178 1333v33h418v-33q-41 -8 -51 -23.5t-15 -64.5l-71 -614q-4 -28 -4 -45q0 -36 13 -49t50 -25v-31h-262v31q38 12 50.5 24.5t12.5 49.5q0 17 -4 45l-71 614q-4 34 -7 46.5t-16.5 24t-42.5 17.5zM223 141q0 67 48 114.5t116 47.5t116 -47.5t48 -114.5q0 -68 -48.5 -117 t-115.5 -49q-68 0 -116 49t-48 117z" />
<glyph unicode="&#x22;" horiz-adv-x="1136" d="M96 1337v29h377v-29q-13 -3 -21.5 -5.5t-14.5 -6.5t-9 -7t-5 -10.5t-3 -12.5t-2.5 -17t-3.5 -21l-66 -348q-2 -12 -2 -37q0 -67 55 -69v-29h-235v29q36 4 46.5 20.5t10.5 55.5q0 20 -2 30l-65 348q-2 9 -4 24t-3 19t-4.5 12.5t-9 11t-15 6.5t-24.5 7zM664 1337v29h378 v-29q-19 -4 -29 -7.5t-16 -11t-7 -12t-3 -21.5t-4 -28l-65 -348q-5 -30 -5 -37q0 -32 13 -49t45 -20v-29h-236v29q37 7 47.5 21.5t10.5 54.5q0 5 -5 30l-65 348q-2 9 -3.5 21t-2.5 17t-3 12.5t-5 10.5t-9 7t-14.5 6.5t-21.5 5.5z" />
<glyph unicode="#" horiz-adv-x="1570" d="M51 240l68 340h33q3 -34 16 -49t45 -15h166l63 328h-166q-33 0 -52 -16.5t-34 -49.5h-32l65 340h35q3 -34 15 -48.5t44 -14.5h166l39 200q0 2 1 8.5t1 8.5q0 26 -12 37t-39 18l6 33l340 2l-6 -35q-34 -8 -54 -24.5t-26 -47.5l-39 -200h328l39 200q2 6 2 17 q0 26 -11.5 37.5t-39.5 17.5l6 33l340 2l-6 -35q-34 -8 -53 -24t-25 -48l-39 -200h166q57 0 86 63h31l-64 -340h-35q-3 66 -59 66h-166l-64 -328h166q58 0 84 64h33l-63 -340h-35q-3 32 -16.5 47.5t-43.5 15.5h-165q-3 -16 -14.5 -65.5t-19 -90t-7.5 -61.5q0 -26 11.5 -36 t39.5 -19l-6 -35h-340l6 35q34 8 53 23.5t25 47.5l39 201h-328q-2 -13 -13.5 -64.5t-18.5 -91t-7 -61.5q0 -26 11.5 -36t39.5 -19l-8 -35h-340l8 35q34 8 53 23.5t25 47.5l39 201h-166q-33 0 -52 -15.5t-34 -47.5h-35zM590 516h328l63 328h-328z" />
<glyph unicode="$" d="M76 125l147 336l29 -15q0 -44 33 -82.5t81.5 -63.5t108.5 -44.5t109 -29.5t88 -13v342q-85 8 -127.5 13.5t-110 22t-119.5 42.5q-92 45 -141 131.5t-49 191.5q0 88 31.5 161t84 121.5t124 82.5t148 50t159.5 18v49q0 54 -66 71v33h279v-33q-19 -4 -31.5 -12t-19 -13.5 t-10 -21.5t-4 -20.5t0 -28.5t0.5 -29q115 -12 221 -45q21 -6 83 -31t116 -45t68 -20q22 0 49 23l28 -17l-163 -319l-29 14q2 6 2 17q0 37 -57 73q-63 43 -153.5 77t-164.5 40v-313q71 -8 109.5 -14t102 -19t113.5 -33.5t91 -48.5q71 -50 109 -129.5t38 -167.5 q0 -89 -33.5 -163t-88.5 -123.5t-129 -85t-152 -53t-160 -21.5v-66q0 -32 15.5 -48t48.5 -24v-32h-279v32q17 4 29 10t19 15t11.5 16t6 21t1.5 22t-0.5 26.5t-0.5 27.5q-166 15 -250 43q-129 41 -242 98q-20 12 -35 12t-43 -22zM401 985q0 -119 259 -130q8 -1 12 -1v301 q-43 -3 -84.5 -11.5t-86.5 -26.5t-72.5 -52t-27.5 -80zM821 213q46 5 89 16.5t87.5 33t71.5 58.5t27 85q0 20 -6 36.5t-19.5 28.5t-26.5 21.5t-35.5 16t-38 11.5t-41.5 8l-39 4.5t-38 3.5t-31 3v-326z" />
<glyph unicode="%" horiz-adv-x="1810" d="M68 1024q0 156 97 255t253 99t252 -99t96 -255t-96 -255t-252 -99t-253 99t-97 255zM242 1024q0 -86 46 -148.5t130 -62.5t130 62.5t46 148.5t-46 148.5t-130 62.5t-130 -62.5t-46 -148.5zM244 0v33q18 2 33.5 6.5t32 16t25.5 17t25.5 25t20.5 23.5t23 29t20 26l788 1016 q43 54 43 80q0 45 -61 61v33h356v-33q-28 -4 -48.5 -12t-37.5 -23.5t-26.5 -27t-28 -38t-29.5 -40.5l-805 -1040q-34 -44 -34 -68q0 -38 59 -51v-33h-356zM1042 342q0 156 97.5 254t253.5 98t252 -98t96 -254t-96 -255t-252 -99t-253.5 99t-97.5 255zM1217 342 q0 -86 46 -148.5t130 -62.5t130 62.5t46 148.5t-46.5 147.5t-129.5 61.5t-129.5 -61.5t-46.5 -147.5z" />
<glyph unicode="&#x26;" horiz-adv-x="1585" d="M59 389q0 257 306 406q-136 119 -136 258q0 67 27.5 123.5t73 95t104 65.5t120 39.5t122.5 12.5q80 0 158.5 -20.5t146.5 -60t110 -107.5t42 -154q0 -66 -25 -120t-60.5 -88.5t-95.5 -76.5q57 -37 93 -80.5t69 -110.5q42 75 79.5 127.5t87 102.5t111 84t138.5 55v-379 h-33q0 49 -29 49q-34 0 -100 -53q-97 -77 -125 -182q35 -36 59 -57t63.5 -40.5t78.5 -19.5q47 0 53 49h33v-315q-14 4 -39.5 7t-45.5 4t-52 2t-39 1q-65 4 -149.5 57.5t-137.5 110.5q-205 -199 -481 -199q-77 0 -151 15.5t-142.5 48.5t-120 80.5t-82.5 117t-31 152.5z M338 442q0 -110 84 -171.5t199 -61.5q67 0 134.5 22t120 73t52.5 120q0 71 -52.5 130t-124 88.5t-139.5 29.5q-107 0 -190.5 -63.5t-83.5 -166.5zM475 1014q0 -81 62.5 -126.5t146.5 -45.5q83 0 145 45.5t62 126.5t-62 126.5t-145 45.5q-84 0 -146.5 -45.5t-62.5 -126.5z " />
<glyph unicode="'" horiz-adv-x="569" d="M96 1337v29h377v-29q-13 -3 -21.5 -5.5t-14.5 -6.5t-9 -7t-5 -10.5t-3 -12.5t-2.5 -17t-3.5 -21l-66 -348q-2 -12 -2 -37q0 -67 55 -69v-29h-235v29q36 4 46.5 20.5t10.5 55.5q0 20 -2 30l-65 348q-2 9 -4 24t-3 19t-4.5 12.5t-9 11t-15 6.5t-24.5 7z" />
<glyph unicode="(" horiz-adv-x="681" d="M135 682q0 247 112.5 477.5t309.5 370.5l111 -92q-115 -132 -168 -248q-97 -210 -97 -508t97 -508q53 -116 168 -248l-111 -90q-198 140 -310 369t-112 477z" />
<glyph unicode=")" horiz-adv-x="681" d="M16 -74q115 132 168 248q97 210 97 508q0 301 -97 508q-53 116 -168 248l111 92q197 -140 309.5 -370.5t112.5 -477.5t-112.5 -476t-309.5 -370z" />
<glyph unicode="*" horiz-adv-x="1032" d="M96 1085l94 289l35 -12v-14q0 -29 15.5 -46.5t46.5 -33.5q65 -36 164 -68l-2 45q0 5 -1.5 38.5t-2.5 46.5t-6.5 41.5t-13.5 43t-23.5 29t-36.5 20.5v37h303v-37q-36 -10 -51 -29.5t-21 -58.5q-7 -43 -12 -176q115 42 161 68q31 16 46.5 33.5t15.5 46.5v16l37 10l94 -289 l-37 -10q-14 24 -30.5 33.5t-43.5 9.5q-24 0 -53 -5t-47 -9.5t-54 -15t-48 -13.5q2 -2 18 -23t24.5 -31.5t26 -32t30.5 -34t29 -26.5t30 -20.5t26 -6.5q19 0 39 10l22 -30l-245 -179l-23 31q25 29 25 55q0 66 -111 207q-1 -2 -11.5 -17t-15 -21.5t-15.5 -23t-17 -26.5 t-15 -25.5t-14.5 -27t-11 -24t-8 -23t-2.5 -19.5q0 -28 24 -55l-22 -31l-244 179l20 30q20 -10 39 -10q10 0 21 4t23.5 13t23.5 17.5t25 23.5t22.5 24t22.5 26.5t19 24t18 22.5l12 17q-2 0 -44.5 12.5t-59 17t-47.5 10t-52 5.5q-28 0 -44 -9.5t-32 -33.5z" />
<glyph unicode="+" horiz-adv-x="1570" d="M233 520v326h31q7 -32 21.5 -49t44.5 -17h356v357q0 30 -15.5 44.5t-47.5 22.5v29h325v-29q-34 -8 -49.5 -22t-15.5 -45v-357h356q30 0 45 16.5t23 49.5h28v-326h-28q-8 33 -22.5 48.5t-45.5 15.5h-356v-357q0 -30 16 -43t49 -22v-31h-325v31q32 7 47.5 21t15.5 44v357 h-356q-30 0 -44 -15.5t-22 -48.5h-31z" />
<glyph unicode="," horiz-adv-x="628" d="M150 141q0 71 39.5 116.5t109.5 45.5q88 0 133 -69.5t45 -163.5q0 -218 -231 -383l-49 63q80 52 116.5 101t53.5 137q-50 -13 -70 -13q-69 0 -108 47.5t-39 118.5z" />
<glyph unicode="-" horiz-adv-x="454" d="M0 387v346h33q8 -33 23.5 -49t47.5 -16h246q32 0 48 16t26 49h31v-346h-31q-10 33 -26 48.5t-48 15.5h-246q-55 0 -71 -64h-33z" />
<glyph unicode="." horiz-adv-x="628" d="M150 141q0 67 47.5 114.5t115.5 47.5t116 -47t48 -115t-48.5 -117t-115.5 -49q-68 0 -115.5 49t-47.5 117z" />
<glyph unicode="/" horiz-adv-x="1554" d="M68 0v33q18 2 34 7t31.5 15t25.5 16.5t25 24.5t20.5 24t22.5 28.5t21 27.5l788 1016q1 2 12 16.5t15.5 22t10 20t5.5 21.5q0 23 -17 38.5t-42 22.5v33h467v-33q-28 -4 -48.5 -12t-37.5 -23.5t-26.5 -27t-28 -38t-29.5 -40.5l-805 -1040q-35 -45 -35 -68q0 -39 60 -51v-33 h-469z" />
<glyph unicode="0" d="M84 682q0 146 44 274.5t125 225t204.5 152t273.5 55.5q149 0 272 -55.5t204 -152t125 -225t44 -274.5t-44 -274t-125 -224.5t-204 -152.5t-272 -56t-272.5 55.5t-204.5 152t-125.5 225t-44.5 274.5zM389 690q0 -65 11.5 -128.5t38 -125t65.5 -108t97.5 -75t129.5 -28.5 q88 0 156 43t107 113t58 148.5t19 160.5t-19 161t-58 149.5t-107 113.5t-156 43q-89 0 -157.5 -43t-107 -113t-58 -149t-19.5 -162z" />
<glyph unicode="1" d="M442 872v363h31q11 -41 24 -51q10 -8 27 -8q11 0 32.5 5t49.5 12.5t33 8.5v60q0 55 -64 71v33h418v-33q-35 -8 -50 -23t-15 -48v-1158q0 -33 15 -48t50 -23v-33h-418v33q64 16 64 71v865l-94 -23q-33 -7 -48 -23t-24 -51h-31z" />
<glyph unicode="2" d="M82 -31q0 134 16 207.5t80 165.5q30 43 70.5 82t75 65t91.5 58t88.5 47.5t98.5 46.5l168 78q49 23 82.5 43t69.5 50.5t54.5 70.5t18.5 88q0 100 -69 143t-176 43q-143 0 -269 -72q-44 -25 -82.5 -63t-38.5 -76q0 -18 17 -63l-23 -23l-266 287l25 22q29 -18 55 -18 q14 0 26 6t32 23l20 18q225 191 542 191q103 0 193 -25.5t162.5 -75.5t114.5 -133t42 -190q0 -89 -28.5 -162t-83 -127.5t-116.5 -94t-146 -77.5q-194 -88 -262 -115q-6 -2 -26.5 -10.5t-27 -11t-24 -10t-24.5 -11.5t-22 -11.5t-23 -13.5t-20.5 -15t-21 -17.5t-18.5 -19.5 t-19 -23h836q32 0 48 15t26 48h30v-372h-30q-10 33 -26 48t-48 15h-1063q-21 0 -30.5 -0.5t-22.5 -3.5t-19.5 -9.5t-13 -18.5t-10.5 -31h-33v32z" />
<glyph unicode="3" d="M43 106l160 369l28 -14q-4 -12 -4 -21q0 -43 36.5 -81.5t92 -64t103.5 -41.5t90 -24q97 -20 203 -20q42 0 83 5t86.5 19.5t79.5 36t56 58.5t22 84q0 194 -317 194h-24h-28t-26.5 -1.5t-28.5 -4t-24 -7.5t-22.5 -12.5t-15.5 -18.5t-11 -25h-33v335h33q4 -15 11 -26 t14 -18.5t21 -13t21.5 -8t26.5 -4t25 -1.5h28h25q50 0 96 7t94.5 25t77.5 55.5t29 90.5q0 44 -20 77t-50.5 51.5t-72 30.5t-78 15.5t-76.5 3.5q-208 0 -357 -90q-73 -44 -73 -92q0 -22 12 -43l-25 -21l-229 283l24 20q32 -16 56 -16q16 0 53 23q138 88 270.5 129t290.5 41 q78 0 152.5 -12.5t147 -42.5t126.5 -74t87.5 -113t33.5 -154q0 -179 -172 -278q111 -43 169 -115.5t58 -187.5q0 -97 -38.5 -174.5t-100 -126t-144.5 -80.5t-166.5 -45t-172.5 -13q-260 0 -461 91q-21 14 -78 38.5t-78 24.5q-6 0 -11.5 -1t-11 -4t-9.5 -5t-10 -7t-8.5 -7 t-9 -8t-7.5 -7z" />
<glyph unicode="4" d="M90 166v289l678 762q43 48 43 73q0 21 -13.5 30t-37.5 13v33h536v-33q-33 -8 -48 -23.5t-15 -47.5v-807h74q32 0 48.5 15.5t24.5 47.5h31v-352h-31q-6 19 -14.5 32t-17 20t-24.5 9.5t-25.5 3t-32 -0.5t-33.5 -1v-125q0 -32 15 -47.5t48 -23.5v-33h-417v33q33 8 48 23.5 t15 47.5v125h-741q-38 0 -56 -13t-24 -50h-31zM416 455h526v600z" />
<glyph unicode="5" d="M57 162l242 319l27 -18q-9 -24 -9 -45q0 -22 14.5 -43t29.5 -33t38 -27q159 -106 369 -106q62 0 119 13.5t106 42t78 78.5t29 116q0 65 -29.5 114t-79.5 76t-106 40t-117 13q-159 0 -262 -57q-49 -25 -49 -55q0 -18 14 -39l-25 -23l-352 357l21 22q2 0 7 -1t7 -1 q47 0 47 64v288q0 33 -15 50.5t-48 25.5v33h1081q32 0 48 15.5t26 48.5h30v-361h-30q-10 33 -26 48.5t-48 15.5h-778v-295q171 82 383 82q90 0 173.5 -15.5t161.5 -50.5t136 -87t92.5 -130.5t34.5 -175.5q0 -102 -35.5 -185t-94.5 -138.5t-140 -92.5t-168.5 -53.5 t-182.5 -16.5q-198 0 -342 54q-74 28 -217 112q-45 25 -74 25q-7 0 -13.5 -1t-13.5 -4.5t-10.5 -5.5t-12 -7t-11.5 -7z" />
<glyph unicode="6" d="M96 670q0 323 201 522t524 199q114 0 246 -33q70 -18 174 -64q45 -18 66 -18q6 0 22 4q22 18 31 23l26 -17l-178 -328l-26 15q6 36 6 39q0 21 -17 41q-48 55 -153 85.5t-193 30.5q-113 0 -211 -45t-159 -133q-41 -59 -55 -114.5t-19 -143.5q100 89 204.5 129.5 t237.5 40.5q84 0 164 -17.5t152 -54.5t126 -90t85.5 -129t31.5 -166q0 -97 -37 -177.5t-98 -134t-142 -90t-167 -53t-176 -16.5q-288 0 -453 146q-108 94 -160.5 241.5t-52.5 307.5zM440 438q0 -61 30.5 -109t80.5 -74.5t105.5 -40t113.5 -13.5t113.5 13.5t105.5 40 t80.5 74.5t30.5 109t-31 108.5t-81 74.5t-105.5 40t-112.5 13t-112.5 -13t-105.5 -40t-81 -74.5t-31 -108.5z" />
<glyph unicode="7" d="M86 1077v353h31q10 -33 25.5 -48.5t47.5 -15.5h1082q31 0 46 15.5t25 48.5h33v-261l-614 -1011q-1 -3 -12.5 -21t-18 -31.5t-6.5 -23.5q0 -14 9.5 -24.5t19 -15t26.5 -9.5v-33h-487v33q33 8 60 30t39 38.5t38 56.5l612 983h-852q-32 0 -47.5 -15.5t-25.5 -48.5h-31z" />
<glyph unicode="8" d="M76 408q0 130 83.5 208.5t221.5 114.5q-116 43 -182 111.5t-66 179.5q0 86 40.5 153t102 106.5t145 64.5t158.5 34t152 9t152 -9t158 -34t144 -64.5t101.5 -106.5t40.5 -153q0 -110 -66 -179t-180 -112q138 -36 221.5 -114.5t83.5 -208.5q0 -115 -69 -213 q-150 -220 -586 -220q-252 0 -414 74q-105 48 -173 146.5t-68 212.5zM381 414q0 -60 35.5 -103t92.5 -64t111.5 -29.5t110.5 -8.5t110 8.5t111 29.5t92 64t35 103q0 49 -24 86.5t-60.5 59t-85.5 35.5t-92 18.5t-86 4.5q-56 0 -110.5 -8.5t-111.5 -29t-92.5 -63.5t-35.5 -103 zM422 1012q0 -50 32.5 -85t85 -51.5t99 -23t92.5 -6.5t92.5 6.5t98 23t84 51.5t32.5 85t-32.5 85t-84.5 50.5t-98 22t-92 6.5q-36 0 -72 -3.5t-80.5 -14t-77.5 -27.5t-56 -48t-23 -71z" />
<glyph unicode="9" d="M76 80l176 326l29 -15q-7 -21 -7 -37q0 -23 17 -43q47 -54 151.5 -84t192.5 -30q114 0 213 44.5t160 133.5q28 40 43.5 85t20 77t9.5 96q-99 -90 -203.5 -130t-240.5 -40q-84 0 -164 17.5t-152 54.5t-126 90t-85.5 129t-31.5 166q0 97 37 177t98 133t142 89.5t167 53 t176 16.5q288 0 455 -146q108 -94 160.5 -241.5t52.5 -305.5q0 -323 -202 -522t-525 -199q-120 0 -244 31q-25 7 -122.5 45.5t-116.5 38.5q-25 0 -54 -29zM360 928q0 -61 31 -108.5t81 -74.5t105.5 -40t112.5 -13t112.5 13t105.5 40t81 74.5t31 108.5t-31 109t-81 74.5 t-105.5 40t-112.5 13.5t-112.5 -13.5t-105.5 -40t-81 -74.5t-31 -109z" />
<glyph unicode=":" horiz-adv-x="628" d="M150 141q0 67 47.5 114.5t115.5 47.5t116 -47t48 -115t-48.5 -117t-115.5 -49q-68 0 -115.5 49t-47.5 117zM150 981q0 67 47.5 114.5t115.5 47.5t116 -47t48 -115t-48.5 -117t-115.5 -49q-68 0 -115.5 49t-47.5 117z" />
<glyph unicode=";" horiz-adv-x="628" d="M150 141q0 71 39.5 116.5t109.5 45.5q88 0 133 -69.5t45 -163.5q0 -218 -231 -383l-49 63q80 52 116.5 101t53.5 137q-50 -13 -70 -13q-69 0 -108 47.5t-39 118.5zM150 981q0 67 47.5 114.5t115.5 47.5t116 -47t48 -115t-48.5 -117t-115.5 -49q-68 0 -115.5 49t-47.5 117 z" />
<glyph unicode="&#x3c;" horiz-adv-x="1024" d="M80 739v19l864 540v-129l-516 -325l516 -350v-344z" />
<glyph unicode="=" horiz-adv-x="1570" d="M233 289v323h31q7 -32 21.5 -47.5t44.5 -15.5h909q30 0 45 15.5t23 47.5h28v-323h-28q-8 33 -22.5 48t-45.5 15h-909q-30 0 -44 -15t-22 -48h-31zM233 752v325h31q7 -32 21.5 -47.5t44.5 -15.5h909q30 0 45 15.5t23 47.5h28v-325h-28q-8 34 -22 49.5t-46 15.5h-909 q-30 0 -43.5 -16t-22.5 -49h-31z" />
<glyph unicode="&#x3e;" horiz-adv-x="1024" d="M80 150v129l516 325l-516 350v344l864 -589v-19z" />
<glyph unicode="?" horiz-adv-x="999" d="M41 1233l27 16q33 -14 43 -14q9 0 21.5 5t21.5 10.5t23.5 14.5t17.5 11q92 59 163 86t162 27q94 0 173.5 -32.5t131.5 -103t52 -166.5q0 -48 -14 -92t-43.5 -86t-54.5 -70.5t-67 -70.5q-43 -40 -75 -86q-21 -31 -27 -54.5t-6 -64.5q0 -29 13 -41t44 -20v-31h-328v31 q30 10 46 26q18 20 34.5 103.5t40.5 122.5q14 22 61.5 80t75 106t27.5 92q0 67 -43.5 106.5t-111.5 39.5q-38 0 -88 -18.5t-90 -53.5t-40 -74q0 -10 9 -33l-27 -18zM336 141q0 67 48 114.5t116 47.5t116 -47.5t48 -114.5q0 -68 -48.5 -117t-115.5 -49q-68 0 -116 49t-48 117 z" />
<glyph unicode="@" horiz-adv-x="1681" d="M109 670q0 129 40 242.5t112 199t169 148t213.5 94.5t241.5 32q105 0 206 -25t188.5 -75.5t153.5 -121t104 -166.5t38 -207q0 -73 -23 -149.5t-64.5 -143t-108 -108.5t-144.5 -42q-76 0 -122 27t-85 92q-57 -47 -145.5 -71.5t-171.5 -24.5q-122 0 -203.5 62.5 t-81.5 180.5q0 84 39.5 157t103 121t143 75.5t160.5 27.5q76 0 132 -22.5t112 -75.5l23 72h135l-115 -459q-2 -8 -2 -23q0 -22 19 -32.5t43 -10.5q56 0 98.5 30.5t64.5 79.5t32.5 100.5t10.5 103.5q0 107 -47.5 199t-125.5 152.5t-176.5 95t-201.5 34.5q-151 0 -292.5 -70.5 t-233.5 -199.5t-92 -283q0 -108 42 -210t118 -181q89 -92 200 -130t252 -38q167 0 306 47q18 5 25 11.5t7 23.5q0 2 -1 7t-1 7l25 6l65 -233l-22 -6q-20 49 -55 49q-23 0 -72 -14.5t-58 -16.5q-124 -28 -245 -28q-150 0 -284 50t-233 138.5t-157.5 219t-58.5 282.5zM582 639 q0 -70 47 -105.5t119 -35.5q64 0 128.5 20t115 68t50.5 114q0 86 -55 127t-145 41q-102 0 -181 -64.5t-79 -164.5z" />
<glyph unicode="A" horiz-adv-x="1665" d="M6 0v33q30 5 51.5 20.5t32 32.5t27.5 51l501 1051q23 48 23 80q0 48 -57 65v33h483v-33q-57 -16 -57 -59q0 -30 18 -66l520 -1052q15 -30 23 -44t23.5 -34.5t34.5 -30.5t44 -14v-33h-502v33q66 8 66 61q0 26 -20 62l-95 192h-620l-90 -192q-19 -38 -19 -64q0 -46 66 -59 v-33h-453zM592 535h444l-221 487z" />
<glyph unicode="B" horiz-adv-x="1650" d="M123 0v33q32 8 47.5 24t15.5 47v1158q0 31 -15.5 47t-47.5 24v33h924q117 0 202 -17t154 -71q59 -48 90 -121t31 -153q0 -203 -185 -289q230 -87 230 -322q0 -186 -133 -293q-75 -59 -168.5 -79.5t-212.5 -20.5h-932zM485 225h506q46 0 80 3t72.5 14.5t63 31t41 54.5 t16.5 84t-16.5 84t-41 54.5t-63 30.5t-72.5 14t-80 3h-506v-373zM485 823h523q39 0 67.5 3t59 12.5t49 26t31 46t12.5 70.5q0 51 -16.5 84.5t-50 49.5t-68 21t-84.5 5h-523v-318z" />
<glyph unicode="C" horiz-adv-x="1718" d="M92 682q0 137 42 252.5t116 198.5t175 141t220 86.5t250 28.5q156 0 276.5 -33.5t258.5 -114.5q6 -3 29 -16.5t40 -23.5t37 -18.5t29 -8.5q19 0 45 26l26 -18l-190 -285l-27 18q2 8 2 27q0 24 -19.5 47t-40 36t-46.5 28l-8 4q-175 100 -373 100q-235 0 -373 -117 q-80 -68 -123 -161t-43 -197q0 -103 43.5 -196.5t122.5 -159.5q142 -117 373 -117q202 0 373 98q114 67 114 117q0 19 -2 27l27 18l190 -285l-26 -18q-27 27 -45 27q-13 0 -38.5 -12.5t-57 -32t-39.5 -23.5q-148 -78 -267.5 -114t-267.5 -36q-165 0 -309 46t-255 132.5 t-175 223t-64 305.5z" />
<glyph unicode="D" horiz-adv-x="1716" d="M123 0v33q63 12 63 71v1158q0 59 -63 71v33h760q170 0 295 -29t231 -116q217 -180 217 -539q0 -348 -217 -537q-69 -61 -162.5 -94.5t-173.5 -42t-190 -8.5h-760zM485 225h373q120 0 206 24t153 97q104 114 104 336q0 105 -22.5 187t-81.5 151q-63 72 -151 96.5 t-208 24.5h-373v-916z" />
<glyph unicode="E" horiz-adv-x="1556" d="M123 0v33q32 8 47.5 24t15.5 47v1158q0 31 -15.5 47t-47.5 24v33h1216q31 0 47.5 16t24.5 48h33v-353h-33q-16 64 -72 64h-854v-326h553q32 0 48 16.5t24 49.5h33v-346h-33q-8 32 -24 48.5t-48 16.5h-553v-375h877q32 0 48 15.5t26 48.5h30v-352h-30q-10 33 -26 48 t-48 15h-1239z" />
<glyph unicode="F" horiz-adv-x="1488" d="M123 0v33q32 8 47.5 24t15.5 47v1158q0 31 -15.5 47t-47.5 24v33h1208q31 0 47.5 16t24.5 48h33v-353h-33q-8 32 -24.5 48t-47.5 16h-846v-326h553q32 0 48 15.5t24 48.5h33v-347h-33q-8 32 -24 49t-48 17h-553v-494q0 -32 15.5 -47.5t48.5 -23.5v-33h-426z" />
<glyph unicode="G" horiz-adv-x="1757" d="M92 684q0 140 43.5 257t120 198.5t181 138.5t225 84t253.5 27q176 0 383 -68q14 -5 52 -20t67.5 -24t50.5 -9q24 0 50 22l28 -14l-160 -326l-28 15q0 33 -15 53q-34 44 -119.5 77t-168.5 47.5t-146 14.5q-143 0 -259 -57t-185.5 -166.5t-69.5 -253.5q0 -150 73 -258.5 t191.5 -160.5t266.5 -52q106 0 216.5 24.5t194.5 71.5v187h-336q-57 0 -73 -64h-31v317h31q8 -33 24 -48t49 -15h648v-33q-66 -14 -66 -71v-281q0 -58 66 -74v-24q-387 -224 -754 -224q-133 0 -252.5 28t-220.5 86t-174 141.5t-114.5 199.5t-41.5 254z" />
<glyph unicode="H" horiz-adv-x="1757" d="M123 0v33q32 8 47.5 24t15.5 47v1158q0 31 -15.5 47t-47.5 24v33h426v-33q-33 -8 -48.5 -24t-15.5 -47v-441h787v441q0 31 -15.5 47t-48.5 24v33h426v-33q-32 -8 -47.5 -24t-15.5 -47v-1158q0 -32 15 -47.5t48 -23.5v-33h-426v33q33 8 48.5 24t15.5 47v492h-787v-492 q0 -32 15.5 -47.5t48.5 -23.5v-33h-426z" />
<glyph unicode="I" horiz-adv-x="671" d="M123 0v33q32 8 47.5 24t15.5 47v1158q0 31 -15.5 47t-47.5 24v33h426v-33q-33 -8 -48.5 -24t-15.5 -47v-1158q0 -32 15.5 -47.5t48.5 -23.5v-33h-426z" />
<glyph unicode="J" horiz-adv-x="1236" d="M6 51l127 346l31 -10v-20q0 -29 27 -56t68.5 -44.5t77 -28.5t64.5 -17q64 -12 131 -12q132 0 195 61q25 25 37.5 63t14 64t1.5 74v791q0 31 -15.5 47t-47.5 24v33h426v-33q-66 -17 -66 -71v-805q0 -133 -24.5 -219.5t-108.5 -153.5q-133 -109 -358 -109q-138 0 -262 37 q-7 2 -64 20t-96.5 27t-65.5 9q-34 0 -61 -27z" />
<glyph unicode="K" horiz-adv-x="1642" d="M123 0v33q33 8 48 23.5t15 47.5v1158q0 32 -15 47.5t-48 23.5v33h426v-33q-33 -8 -48.5 -23.5t-15.5 -47.5v-478l562 459q38 32 38 49q0 30 -57 41v33h559v-33q-30 -6 -45 -14t-45 -31q-55 -42 -125 -102l-465 -375l527 -633q15 -17 92 -100q23 -23 41 -30.5t55 -14.5 v-33h-535v33q54 9 54 39q0 9 -8 22t-23 30t-16 19l-404 494l-205 -166v-367q0 -32 15.5 -47.5t48.5 -23.5v-33h-426z" />
<glyph unicode="L" horiz-adv-x="1449" d="M123 0v33q32 8 47.5 24t15.5 47v1158q0 31 -15.5 47t-47.5 24v33h426v-33q-33 -8 -48.5 -24t-15.5 -47v-1037h840q32 0 48 15.5t24 48.5h33v-352h-33q-15 63 -72 63h-1202z" />
<glyph unicode="M" horiz-adv-x="1978" d="M123 0v33q33 8 48 23.5t15 47.5v1158q0 32 -15 47.5t-48 23.5v33h526v-33q-47 -13 -47 -55q0 -24 14 -45l373 -688l375 676q27 54 27 65q0 44 -52 47v33h516v-33q-33 -8 -48 -23.5t-15 -47.5v-1158q0 -32 15 -47.5t48 -23.5v-33h-425v33q32 8 48.5 23.5t16.5 47.5v840 l-532 -926l-502 926v-840q0 -32 15 -47.5t48 -23.5v-33h-401z" />
<glyph unicode="N" horiz-adv-x="1783" d="M123 0v33q33 8 48 23.5t15 47.5v1158q0 32 -15 47.5t-48 23.5v33h465v-33q-43 -10 -43 -47q0 -25 26 -51l754 -784v811q0 32 -16.5 47.5t-48.5 23.5v33h401v-33q-33 -8 -48.5 -23.5t-15.5 -47.5v-1158q0 -32 15.5 -47.5t48.5 -23.5v-33h-428v33q41 10 41 43q0 7 -3 14.5 t-10.5 16.5t-11 13.5t-13.5 14.5l-11 10l-764 791v-832q0 -32 15 -47.5t48 -23.5v-33h-401z" />
<glyph unicode="O" horiz-adv-x="1753" d="M92 682q0 148 56.5 281.5t162.5 232.5q207 193 566 193q350 0 563 -193q106 -97 163.5 -232t57.5 -282q0 -146 -57.5 -280.5t-163.5 -231.5q-215 -195 -563 -195q-356 0 -566 195q-105 98 -162 232t-57 280zM395 682q0 -209 136.5 -341t345.5 -132q208 0 343.5 132.5 t135.5 340.5q0 210 -134.5 342.5t-344.5 132.5t-346 -132.5t-136 -342.5z" />
<glyph unicode="P" horiz-adv-x="1566" d="M123 0v33q32 8 47.5 24t15.5 47v1158q0 31 -15.5 47t-47.5 24v33h852q129 0 221 -16.5t170 -73.5q71 -52 108 -137t37 -178q0 -94 -37 -178.5t-108 -139.5q-75 -56 -169 -73t-222 -17h-490v-449q0 -31 15.5 -47t48.5 -24v-33h-426zM485 778h455q46 0 79 2.5t71 13.5 t62 30t40 53.5t16 83.5q0 47 -20 88t-58 63q-24 14 -63 21t-59.5 7.5t-67.5 0.5h-455v-363z" />
<glyph unicode="Q" horiz-adv-x="1753" d="M92 682q0 148 56.5 281.5t162.5 232.5q210 193 566 193q353 0 563 -193q107 -99 164 -233t57 -281q0 -143 -55 -277t-158 -229q90 -98 137 -143q23 -23 47 -23q15 0 45 15l21 -25l-291 -266l-23 24q1 2 7.5 13t10 19.5t3.5 14.5t-3 14t-6 12t-10 13t-8 11q-24 31 -73 91 t-74 91q-150 -62 -361 -62q-347 0 -559 195q-105 98 -162 232t-57 280zM395 682q0 -209 136.5 -341t345.5 -132q63 0 93 5t91 26q-66 81 -124 126t-144 68v29q74 55 163 55q33 0 64.5 -7.5t63.5 -24.5t52.5 -30.5t56.5 -39.5t52 -37l6 -4q105 132 105 309 q0 208 -135.5 340.5t-343.5 132.5q-210 0 -346 -132.5t-136 -342.5z" />
<glyph unicode="R" horiz-adv-x="1656" d="M123 0v33q32 8 47.5 24t15.5 47v1158q0 31 -15.5 47t-47.5 24v33h854q88 0 144 -3.5t131 -23t132 -55.5q77 -50 115.5 -138.5t38.5 -189.5q0 -331 -371 -389l267 -377q7 -10 22.5 -30.5t22.5 -30.5q41 -56 61 -71q31 -24 76 -25v-33h-494v33q49 5 49 37q0 7 -6.5 20 t-13 24t-16 25t-11.5 17l-274 401h-365v-453q0 -31 15.5 -47t48.5 -24v-33h-426zM485 782h461h47t45 1.5t46 4.5t40.5 9t39.5 15t30.5 22.5t25.5 31.5t14.5 42.5t6.5 54.5q0 103 -76 147q-15 9 -34.5 15t-33.5 9.5t-40 5t-36 1.5h-40.5h-34.5h-461v-359z" />
<glyph unicode="S" horiz-adv-x="1474" d="M82 125l147 336l31 -15q0 -2 -1 -6t-1 -6q0 -52 64 -100q81 -58 205.5 -91.5t234.5 -33.5q50 0 103.5 9.5t109.5 30.5t91.5 62t35.5 95q0 22 -9 40.5t-22 31t-36 22.5t-40.5 15.5t-47 10.5t-45 6.5t-44.5 3.5t-35 3l-153 16q-82 8 -124 13.5t-107.5 22t-116.5 42.5 q-93 47 -142 131t-49 190q0 94 35 170t92 124.5t135 81t158.5 46t167.5 13.5q174 0 330 -50q13 -4 77.5 -29t123.5 -47t65 -22q24 0 49 25l29 -17l-162 -319l-29 14q0 34 -11 50t-46 40q-87 60 -197.5 91.5t-220.5 31.5q-46 0 -95 -7.5t-102.5 -24.5t-87.5 -53.5t-34 -86.5 q0 -27 11.5 -47.5t34 -34t45 -23t56.5 -15t55 -8t55 -4.5t42 -3l157 -16q122 -13 213 -37t166 -78q71 -52 109.5 -131t38.5 -168q0 -82 -27.5 -150.5t-75.5 -116t-109.5 -83t-134.5 -56t-144.5 -30t-145.5 -9.5q-166 0 -324 48q-127 40 -178 67q-15 8 -52.5 25.5t-45.5 17.5 q-17 0 -43 -22z" />
<glyph unicode="T" horiz-adv-x="1380" d="M14 1077v353h31q10 -33 26 -48.5t48 -15.5h1145q31 0 47 15.5t24 48.5h33v-353h-33q-8 33 -24 48.5t-47 15.5h-424v-1037q0 -32 15 -47.5t48 -23.5v-33h-426v33q33 8 49.5 24t16.5 47v1037h-424q-32 0 -48 -15.5t-26 -48.5h-31z" />
<glyph unicode="U" horiz-adv-x="1671" d="M96 1333v33h426v-33q-32 -8 -48.5 -24.5t-16.5 -46.5v-682q0 -120 10 -167q14 -62 51 -102q92 -102 330 -102q228 0 328 102q29 29 43 77.5t16 81.5t2 93v9v8v682q0 55 -63 71v33h401v-33q-33 -8 -48.5 -24t-15.5 -47v-766q0 -144 -37.5 -247.5t-140.5 -166.5 q-173 -107 -497 -107q-320 0 -498 107q-103 62 -140.5 167t-37.5 247v766q0 55 -64 71z" />
<glyph unicode="V" horiz-adv-x="1576" d="M-6 1333v33h485v-33q-32 -5 -49.5 -17t-17.5 -40q0 -23 24 -78l361 -801l362 801q23 58 23 80q0 26 -17.5 37.5t-48.5 17.5v33h467v-33q-22 -3 -38.5 -10.5t-29.5 -24.5t-18.5 -26.5t-17 -37.5t-15.5 -36l-473 -1020q-2 -5 -9.5 -20t-10.5 -23t-6.5 -20.5t-3.5 -22.5 q0 -48 61 -59v-33h-469v33q27 3 45 18t18 41q0 24 -30 86l-473 1020q-30 67 -47 94q-13 20 -28 28t-44 13z" />
<glyph unicode="W" horiz-adv-x="2310" d="M-20 1333v33h473v-33q-33 -7 -48.5 -19t-15.5 -40q0 -24 17 -66l270 -723l293 727q18 45 18 62q0 48 -65 59v33h495v-33q-67 -15 -67 -65q0 -12 16 -60l276 -725l271 713q20 62 20 80q0 15 -6 26t-18 17t-22 8.5t-27 5.5v33h471v-33q-46 -15 -52 -20q-32 -24 -67 -117 l-391 -1008q-29 -72 -29 -94q0 -48 72 -61v-33h-445v33q70 11 70 67q0 14 -5.5 28.5t-14 32t-11.5 27.5l-301 775l-313 -791q-1 -3 -7 -15.5t-9.5 -20.5t-7 -19t-3.5 -19q0 -47 74 -65v-33h-438v33q67 11 67 67q0 8 -5.5 25t-13.5 38t-9 25l-392 1008q-2 6 -8.5 22 t-8.5 21.5t-8 18.5t-10 18t-11 15t-13.5 14.5t-16 11t-20.5 10t-24 6.5z" />
<glyph unicode="X" horiz-adv-x="1542" d="M6 0v33q24 2 44.5 10.5t40.5 27t30.5 30.5t31.5 39.5t27 35.5l412 520l-379 496q-9 12 -29.5 41.5t-29.5 39.5t-27.5 26.5t-39.5 23.5t-50 10l-2 33h549v-33q-60 -17 -60 -61q0 -25 43 -80l213 -274l217 274q50 67 50 86q0 24 -21.5 37.5t-48.5 17.5v33h532v-33 q-26 -3 -46.5 -11t-39 -25t-29 -28.5t-30.5 -38.5t-29 -38l-393 -481l414 -535q6 -8 28.5 -38.5t31.5 -39.5t29 -27.5t41 -26.5t48 -11v-33h-541v33q62 14 62 51q0 19 -37 68l-264 337l-250 -325q-41 -51 -41 -76q0 -51 67 -55v-33h-524z" />
<glyph unicode="Y" d="M-27 1333v33h539v-33q-28 -3 -48 -19t-20 -42q0 -13 6 -26.5t19 -31.5t16 -22l248 -367l252 367q2 2 8 10.5t9 13.5t8.5 13.5t8.5 14.5t5 14t2 14q0 26 -20 42t-48 19v33h529v-33q-17 -2 -31.5 -7t-29.5 -16t-24 -17.5t-23.5 -24t-19 -23.5t-20.5 -28t-18 -25l-442 -621 v-467q0 -32 16.5 -47.5t48.5 -23.5v-33h-428v33q33 8 49.5 24t16.5 47v467l-443 621q-1 1 -16 21.5t-18 24.5t-16.5 21t-20 22.5t-20 17.5t-23.5 16.5t-24 10t-28 7.5z" />
<glyph unicode="Z" horiz-adv-x="1462" d="M82 0v70l792 1071h-681q-32 0 -48 -15.5t-24 -48.5h-33v353h33q8 -32 24.5 -48t47.5 -16h1175v-57l-803 -1084h711q31 0 47.5 16t24.5 48h32v-352h-32q-10 33 -25 48t-47 15h-1194z" />
<glyph unicode="[" horiz-adv-x="681" d="M135 -84q31 9 47.5 23.5t16.5 44.5v1394q0 56 -64 72v25h430q32 0 49 15.5t25 47.5h29v-266h-29q-8 32 -25 47.5t-49 15.5h-147v-1304h135q40 0 58 12.5t28 50.5h29v-268h-29q-8 33 -25 49t-49 16h-430v25z" />
<glyph unicode="\" horiz-adv-x="1554" d="M68 1333v33h469v-33q-62 -16 -62 -61q0 -25 43 -80l791 -1016q6 -8 28.5 -38.5t31.5 -39.5t29 -27.5t41 -26.5t48 -11v-33h-469v33q59 12 59 51q0 23 -35 68l-804 1040q-11 14 -29.5 40.5t-28 38t-26.5 27t-37.5 23.5t-48.5 12z" />
<glyph unicode="]" horiz-adv-x="681" d="M16 94h27q10 -39 28.5 -51t59.5 -12h133v1304h-147q-32 0 -49 -15.5t-25 -47.5h-27v266h27q10 -33 26 -48t48 -15h432v-25q-32 -8 -49 -24t-17 -48v-1394q0 -30 17 -44.5t49 -23.5v-25h-432q-32 0 -49 -16t-25 -49h-27v268z" />
<glyph unicode="^" horiz-adv-x="1024" d="M-61 569l589 865h17l540 -865h-129l-325 516l-350 -516h-342z" />
<glyph unicode="_" horiz-adv-x="1024" d="M18 -186h988v-154h-988v154z" />
<glyph unicode="`" horiz-adv-x="1024" d="M260 1501v29h293v-29q-1 0 -6 -1t-6.5 -1t-5.5 -1.5t-5 -3t-2.5 -4.5t-1.5 -7q0 -12 11 -47t25.5 -77.5t17.5 -51.5q8 -24 16.5 -30.5t32.5 -6.5v-27h-201v27q25 0 25 16q0 10 -7 17l-135 172q-13 16 -21.5 21t-29.5 5z" />
<glyph unicode="a" horiz-adv-x="1421" d="M6 0v27q22 4 36.5 10t26.5 22t16.5 24t18.5 36l410 827q25 48 25 80q0 45 -58 66v28h437v-28q-56 -22 -56 -68q0 -30 25 -82l424 -803q2 -4 9.5 -18.5t9.5 -18.5t9 -15.5t10.5 -15t10.5 -12t13 -11.5t14.5 -8.5t18 -8t21.5 -4.5v-27h-458v27q65 11 65 63q0 18 -12 48 t-24.5 53t-31 54.5t-20.5 35.5h-514q-80 -160 -80 -191q0 -46 66 -63v-27h-412zM510 436h356l-182 361z" />
<glyph unicode="b" horiz-adv-x="1386" d="M98 0v27q64 16 64 75v916q0 32 -15.5 48t-48.5 26v28h785q202 0 301 -76q49 -36 75.5 -93t26.5 -120q0 -58 -20.5 -101.5t-52.5 -71t-87 -56.5q100 -46 147.5 -106.5t47.5 -163.5q0 -89 -35.5 -155t-97.5 -103.5t-135 -55.5t-158 -18h-797zM430 203h418q201 0 201 147 q0 146 -201 146h-418v-293zM430 700h408q38 0 63.5 3t54 13t43.5 33.5t15 59.5t-15 59t-44.5 32.5t-54 12t-62.5 2.5h-408v-215z" />
<glyph unicode="c" horiz-adv-x="1427" d="M74 559q0 140 53 252.5t144.5 184t210.5 109.5t255 38q158 0 283 -43q59 -20 119 -51q11 -5 49 -27.5t70 -39.5t42 -17q19 0 39 16l23 -16l-168 -246l-23 16q0 5 1.5 14.5t1.5 14.5q0 37 -62 72q-156 96 -332 96q-84 0 -161 -25t-138.5 -70.5t-98 -117.5t-36.5 -160 t37 -160t98.5 -117.5t139 -70.5t161.5 -25q104 0 207 39q23 9 48 20t59.5 29.5t56 40t21.5 41.5q0 5 -1.5 14.5t-1.5 14.5l23 16l168 -245l-23 -19q-32 19 -39 19q-11 0 -43 -17t-69 -39t-49 -28q-100 -51 -194 -74t-206 -23q-136 0 -255.5 38t-211 109t-145 184t-53.5 253z " />
<glyph unicode="d" horiz-adv-x="1441" d="M98 0v27q64 16 64 75v916q0 58 -64 74v28h658q140 0 247 -26t193 -101q172 -150 172 -434q0 -281 -172 -434q-82 -74 -190.5 -99.5t-249.5 -25.5h-658zM430 203h287q188 0 283.5 85.5t95.5 270.5t-95.5 270.5t-283.5 85.5h-287v-712z" />
<glyph unicode="e" horiz-adv-x="1314" d="M98 0v27q32 8 48 25.5t16 49.5v916q0 32 -15.5 48t-48.5 26v28h1012q34 0 50 15t26 49h26v-332h-26q-9 32 -26.5 47.5t-49.5 15.5h-680v-243h422q32 0 49.5 15.5t26.5 47.5h26v-323h-28q-8 32 -25 47.5t-49 15.5h-422v-272h711q32 0 49 16t27 49h26v-331h-26 q-9 32 -26.5 47.5t-49.5 15.5h-1043z" />
<glyph unicode="f" horiz-adv-x="1247" d="M98 0v27q32 8 48 25.5t16 49.5v916q0 32 -15.5 48t-48.5 26v28h1004q34 0 50 15t26 49h26v-332h-26q-9 32 -26.5 47.5t-49.5 15.5h-672v-243h422q32 0 49.5 15.5t26.5 47.5h26v-323h-28q-8 32 -25 47.5t-49 15.5h-422v-373q0 -32 15.5 -48.5t48.5 -26.5v-27h-396z" />
<glyph unicode="g" horiz-adv-x="1474" d="M74 555q0 140 57 253.5t153 185.5t217.5 110.5t256.5 38.5q178 0 338 -60q2 -1 37 -14t58.5 -20t35.5 -7q13 0 39 17l24 -12l-133 -283l-24 12q0 24 -7.5 36t-29.5 26q-62 44 -155 69t-175 25q-183 0 -301.5 -100t-118.5 -279q0 -93 34 -164.5t94 -114.5t136 -64.5 t166 -21.5q198 0 332 72v172h-256q-32 0 -49 -15.5t-25 -47.5h-26v295h26q8 -32 25 -48t49 -16h534v-29q-63 -15 -63 -82v-235q0 -61 63 -76v-22q-318 -181 -645 -181q-108 0 -206 23t-182.5 70.5t-146.5 115.5t-97 163t-35 208z" />
<glyph unicode="h" horiz-adv-x="1484" d="M98 0v27q32 8 48 25.5t16 49.5v916q0 32 -15.5 48t-48.5 26v28h396v-28q-32 -8 -48 -25t-16 -49v-328h625v328q0 32 -15.5 48t-48.5 26v28h395v-28q-32 -8 -47.5 -25t-15.5 -49v-916q0 -32 15 -48.5t48 -26.5v-27h-395v27q32 8 48 25.5t16 49.5v385h-625v-385 q0 -32 15.5 -48.5t48.5 -26.5v-27h-396z" />
<glyph unicode="i" horiz-adv-x="591" d="M98 0v27q32 8 48 25.5t16 49.5v916q0 32 -15.5 48t-48.5 26v28h396v-28q-32 -8 -48 -25t-16 -49v-916q0 -32 15.5 -48.5t48.5 -26.5v-27h-396z" />
<glyph unicode="j" horiz-adv-x="1034" d="M6 31l98 305l27 -10q0 -31 12 -47q29 -40 119 -65.5t154 -25.5q105 0 158 46t53 149v635q0 32 -16 48t-50 26v28h397v-28q-33 -8 -49 -25t-16 -49v-639q0 -59 -4.5 -101t-18.5 -89t-44 -83t-76 -63q-119 -68 -295 -68q-152 0 -312 56q-6 2 -19.5 7t-24.5 8t-21 3 q-26 0 -45 -26z" />
<glyph unicode="k" horiz-adv-x="1402" d="M98 0v27q32 8 48 25.5t16 49.5v916q0 32 -15.5 48t-48.5 26v28h396v-28q-32 -8 -48 -25t-16 -49v-367l422 336q47 37 47 66q0 27 -59 39v28h503v-28q-37 -5 -66.5 -23t-69 -55.5t-52.5 -48.5l-379 -301l416 -478q14 -18 59 -63q6 -6 21 -22t20.5 -21.5t18 -16.5 t21.5 -15.5t23 -10.5t31 -10v-27h-489v27q43 13 51 27q4 6 4 14q0 14 -12 26q-55 60 -111.5 127t-132 160.5t-106.5 130.5l-160 -131v-279q0 -32 15.5 -48.5t48.5 -26.5v-27h-396z" />
<glyph unicode="l" horiz-adv-x="1175" d="M98 0v27q32 8 48 25.5t16 49.5v916q0 32 -15.5 48t-48.5 26v28h396v-28q-32 -8 -48 -25t-16 -49v-815h627q33 0 49.5 16t26.5 49h26v-331h-26q-9 34 -25.5 48.5t-50.5 14.5h-959z" />
<glyph unicode="m" horiz-adv-x="1677" d="M98 0v27q32 8 48 25.5t16 49.5v916q0 32 -15.5 48t-48.5 26v28h473v-28q-47 -14 -47 -58q0 -39 35 -98l279 -471l280 463q1 2 9 15t11 18.5t10 18.5t10 21t6 18.5t3 18.5q0 44 -49 54v28h461v-28q-66 -16 -66 -74v-916q0 -32 16.5 -48.5t49.5 -26.5v-27h-397v27 q33 10 49 26.5t16 48.5v633l-432 -700l-409 700v-633q0 -32 16 -48.5t49 -26.5v-27h-373z" />
<glyph unicode="n" horiz-adv-x="1523" d="M98 0v27q32 8 48 25.5t16 49.5v916q0 32 -15.5 48t-48.5 26v28h430v-28q-15 -5 -21.5 -7t-15 -11t-8.5 -21q0 -25 33 -58l600 -594v617q0 32 -15 48t-48 26v28h372v-28q-33 -8 -49 -25t-16 -49v-916q0 -32 16 -48.5t49 -26.5v-27h-401v27q43 7 43 39q0 9 -9.5 23t-18 23 t-24 24t-16.5 16l-593 585v-635q0 -32 16 -48.5t49 -26.5v-27h-373z" />
<glyph unicode="o" d="M74 559q0 138 52.5 250t142.5 184t208 111t252 39t252 -38.5t209 -110.5t143.5 -184.5t52.5 -250.5t-52.5 -250.5t-143 -184.5t-208.5 -110.5t-253 -38.5q-134 0 -252 39t-208 111t-142.5 184t-52.5 250zM346 559q0 -162 110 -266.5t273 -104.5q165 0 275 103.5 t110 267.5q0 165 -109.5 269t-275.5 104q-165 0 -274 -104.5t-109 -268.5z" />
<glyph unicode="p" horiz-adv-x="1335" d="M98 0v27q64 16 64 75v916q0 32 -15.5 48t-48.5 26v28h729q215 0 328 -65q67 -40 102 -111.5t35 -152.5q0 -80 -27 -140.5t-69.5 -96t-105.5 -57.5t-125.5 -30t-137.5 -8h-397v-357q0 -32 15.5 -48.5t48.5 -26.5v-27h-396zM430 664h397q34 0 56.5 1.5t50.5 9t44.5 20.5 t28 37.5t11.5 58.5t-12 58.5t-28.5 37t-45 19t-49.5 8t-54 1.5h-399v-251z" />
<glyph unicode="q" horiz-adv-x="1480" d="M74 559q0 138 52.5 250t142.5 184t208 111t252 39t252 -38.5t209 -110t143.5 -183.5t52.5 -250q0 -254 -172 -414q4 -5 32 -36.5t47 -51.5t45.5 -39.5t43.5 -19.5q10 0 37 16l19 -18l-244 -223l-16 20q18 23 18 37q0 28 -160 201q-136 -58 -307 -58q-134 0 -252 39 t-208 111t-142.5 184t-52.5 250zM346 559q0 -162 110 -266.5t273 -104.5q74 0 154 27q-1 1 -4.5 4t-4.5 4q-69 78 -99 102q-49 38 -111 54v16q60 45 129 45q113 0 237 -104l6 -6q78 101 78 231q0 164 -110 267.5t-275 103.5t-274 -104.5t-109 -268.5z" />
<glyph unicode="r" horiz-adv-x="1404" d="M98 0v27q64 16 64 75v916q0 32 -15.5 48t-48.5 26v28h733q83 0 126.5 -2t111 -17.5t115.5 -47.5q62 -40 91.5 -109.5t29.5 -150.5q0 -75 -23 -131t-67 -93.5t-98.5 -60t-127.5 -37.5l213 -295q1 -2 14 -20t16 -21.5t15.5 -19.5t18 -21.5l17.5 -17.5t20.5 -17.5 t20.5 -13.5t23.5 -12t24.5 -6v-27h-469v27q51 12 51 45q0 22 -30 67l-226 320h-268v-357q0 -32 15.5 -48.5t48.5 -26.5v-27h-396zM430 664h404q45 0 73.5 3.5t60.5 15.5t48 39.5t16 70.5q0 26 -7 45.5t-16 32.5t-27 21.5t-31 13t-38 6.5t-38.5 2.5t-40.5 0.5h-404v-251z" />
<glyph unicode="s" horiz-adv-x="1261" d="M66 76l114 274l27 -10q0 -1 -1 -4t-1 -4q0 -23 20 -43q50 -50 184.5 -79.5t231.5 -29.5q30 0 62.5 2.5t76 11t76.5 22.5t56.5 40.5t23.5 60.5q0 16 -5.5 30t-17.5 24.5t-24.5 18.5t-32.5 13.5t-34.5 9.5t-37.5 6.5t-34.5 3.5t-33 3t-26.5 2l-158 14q-66 5 -108 10.5 t-101 21t-100 40.5q-66 40 -101.5 110t-35.5 150q0 79 31.5 143t83 105.5t120 69.5t138 39.5t141.5 11.5q221 0 424 -101l19 -9.5t24 -11.5t20.5 -7t22.5 -4q19 0 41 22l25 -12l-136 -262l-24 12q0 28 -12 43.5t-41 32.5q-145 94 -361 94q-36 0 -78.5 -6.5t-90.5 -20.5 t-79.5 -43t-31.5 -69q0 -57 75 -80q33 -10 93.5 -17t149.5 -12.5t93 -5.5q207 -15 316 -80q68 -41 107.5 -112.5t39.5 -151.5q0 -84 -35.5 -149.5t-91.5 -105.5t-131 -66t-147.5 -36t-147.5 -10q-252 0 -465 97q-36 18 -51 18q-23 0 -37 -24z" />
<glyph unicode="t" horiz-adv-x="1165" d="M16 852v332h27q8 -33 25.5 -48.5t50.5 -15.5h928q34 0 49.5 15t23.5 49h29v-332h-29q-8 32 -24.5 47.5t-48.5 15.5h-330v-813q0 -32 15 -48.5t48 -26.5v-27h-395v27q32 8 48 25.5t16 49.5v813h-330q-32 0 -49.5 -15.5t-26.5 -47.5h-27z" />
<glyph unicode="u" horiz-adv-x="1413" d="M76 1092v28h397v-28q-33 -8 -49 -25t-16 -49v-539q0 -55 2.5 -86t19.5 -72.5t51 -68.5q82 -64 238 -64q154 0 237 64q33 26 49.5 67.5t19.5 74t3 85.5v539q0 32 -15 48t-48 26v28h372v-28q-33 -10 -48 -26t-15 -48v-594q0 -138 -38 -230t-144 -145q-152 -74 -385 -74 q-241 0 -385 74q-105 53 -143 146t-38 229v594q0 32 -16 48t-49 26z" />
<glyph unicode="v" horiz-adv-x="1331" d="M-6 1092v28h450v-28q-65 -18 -65 -70q0 -21 24 -76l271 -592l270 592q25 58 25 76q0 30 -16.5 44.5t-49.5 25.5v28h434v-28q-23 -7 -37.5 -15.5t-28 -27.5t-18 -27t-20.5 -41l-393 -823q-21 -47 -21 -68q0 -52 66 -63v-27h-439v27q66 11 66 63q0 23 -20 68l-394 823 q-3 7 -9.5 21t-9 19t-8.5 15.5t-10 14.5t-11 11.5t-14.5 11.5t-18 9t-23.5 9z" />
<glyph unicode="w" horiz-adv-x="1964" d="M-16 1092v28h426v-28q-29 -9 -45.5 -23t-16.5 -41q0 -20 21 -72l209 -528l208 524q19 48 19 72q0 53 -66 68v28h498v-28q-66 -19 -66 -70q0 -24 17 -66l205 -528l202 535q15 45 15 59q0 31 -16 45.5t-50 24.5v28h436v-28q-12 -5 -22.5 -10.5t-19 -10t-16.5 -13t-13 -13 t-11.5 -16t-9.5 -16t-9.5 -19t-8 -18.5t-8.5 -21.5l-9 -22.5l-301 -762q-16 -40 -16 -72q0 -57 68 -71v-27h-435v27q33 8 49.5 24.5t16.5 48.5q0 10 -3 21t-11.5 29.5t-8.5 19.5l-233 608l-244 -608q-18 -45 -18 -76q0 -57 65 -67v-27h-417v27q61 14 61 67q0 24 -18 76 l-297 762q-2 6 -11.5 29.5t-12.5 30.5t-12 25t-16 25.5t-18.5 19.5t-25.5 18.5t-31 11.5z" />
<glyph unicode="x" horiz-adv-x="1300" d="M6 0v27q52 14 80.5 37.5t69.5 76.5l329 426l-290 387q-55 73 -84 98q-38 31 -80 40v28h512v-28q-64 -18 -64 -60q0 -27 31 -67l152 -203l139 190q1 1 10 13.5t12 17.5t9 15.5t8 19t2 16.5q0 44 -66 58v28h488v-28q-29 -6 -49 -13.5t-37 -22.5t-25.5 -24.5t-28 -36 t-30.5 -41.5l-295 -374l331 -439q41 -54 74 -80t90 -34v-27h-514v27q64 13 64 53q0 16 -35 63l-182 240l-183 -240q-26 -36 -26 -59q0 -38 63 -57v-27h-475z" />
<glyph unicode="y" horiz-adv-x="1226" d="M-23 1092v28h504v-28q-63 -15 -63 -62q0 -10 6 -23.5t11 -21.5t17 -24.5t13 -18.5l162 -225l159 225q2 3 18 24.5t23 36.5t7 29q0 44 -66 60v28h479v-28q-27 -5 -50.5 -18t-47.5 -39t-34.5 -39.5t-35.5 -47.5l-331 -456v-390q0 -32 15 -48.5t48 -26.5v-27h-395v27 q33 10 48 26.5t15 48.5v390l-332 456q-31 42 -48.5 63t-51.5 47t-70 34z" />
<glyph unicode="z" horiz-adv-x="1247" d="M76 0v59l653 856h-543q-32 0 -48.5 -15.5t-24.5 -47.5h-29v332h29q8 -34 23.5 -49t49.5 -15h985v-49l-659 -868h567q32 0 49 16t25 49h29v-331h-29q-8 32 -25 47.5t-49 15.5h-1003z" />
<glyph unicode="{" horiz-adv-x="681" d="M-57 526v314h22q3 -17 7 -29t10.5 -19.5t11.5 -11.5t16.5 -5.5t18 -1.5t25 0.5t28.5 0.5q11 0 19.5 2.5t14.5 9t10.5 12t7 16.5t4.5 17.5t2.5 19.5t0.5 18v18.5v15.5q0 7 1 22.5t1 22.5v373q0 64 64 113q54 41 117 41h231q41 0 59 12.5t27 50.5h29v-278h-29 q-9 39 -26.5 52t-59.5 13h-82q-55 0 -81.5 -42t-26.5 -101v-357q0 -48 -19 -78t-63 -65q44 -34 63 -64t19 -79v-355q0 -59 26.5 -101t81.5 -42h82q41 0 59 12.5t27 50.5h29v-278h-29q-9 39 -26.5 52t-59.5 13h-231q-63 0 -117 41q-64 49 -64 113v373q0 7 -1 21.5t-1 21.5 q0 6 -0.5 24.5t-1 29.5t-3.5 27t-9 25t-17.5 16t-27.5 7h-64q-26 0 -36.5 -16.5t-16.5 -47.5h-22z" />
<glyph unicode="|" horiz-adv-x="1024" d="M412 -485v1994h202v-1994h-202z" />
<glyph unicode="}" horiz-adv-x="681" d="M14 104h27q9 -37 27.5 -50t58.5 -13h82q56 0 82 41.5t26 101.5v355q0 49 19 79t63 64q-44 35 -63 65t-19 78v357q0 60 -26 101.5t-82 41.5h-82q-41 0 -59 -13t-27 -52h-27v278h27q9 -37 27.5 -50t58.5 -13h231q67 0 117 -41q66 -51 66 -113v-373q0 -7 -1 -30t-1 -38.5 t2.5 -37t9 -35t19.5 -23.5t32 -10h62q26 0 36.5 17t16.5 49h24v-314h-24q-4 19 -10 31.5t-10 19.5t-17 10t-19 3.5t-27.5 0t-31.5 -0.5q-19 0 -32 -10t-19.5 -23t-9 -34.5t-2.5 -36.5t1 -38t1 -30v-373q0 -62 -66 -113q-54 -41 -117 -41h-231q-41 0 -59 -13t-27 -52h-27v278 z" />
<glyph unicode="~" horiz-adv-x="1366" d="M281 1264q25 45 48 79.5t56.5 71t75 56.5t88.5 20q57 0 165 -40t165 -40q86 0 161 90l45 -26q-30 -60 -66 -107.5t-91.5 -84t-116.5 -36.5q-52 0 -162.5 41t-167.5 41q-19 0 -36 -4t-28 -9t-26 -16.5t-21.5 -18t-22.5 -23t-23 -23.5z" />
<glyph unicode="&#xa1;" horiz-adv-x="774" d="M178 0v33q42 8 51.5 23t14.5 63l71 616q4 28 4 45q0 34 -14 51t-49 21v33h262v-33q-34 -4 -48.5 -21t-14.5 -51q0 -17 4 -45l71 -616q3 -27 4.5 -37t8.5 -22t19 -17t34 -10v-33h-418zM223 1225q0 67 48.5 115.5t115.5 48.5t115.5 -48.5t48.5 -115.5t-48.5 -115.5 t-115.5 -48.5t-115.5 48.5t-48.5 115.5z" />
<glyph unicode="&#xa2;" d="M117 686q0 170 79 298.5t210.5 198t300.5 83.5v53q0 32 -16.5 49t-49.5 27v26h274v-26q-16 -5 -28 -10.5t-19 -14t-11 -14t-5.5 -18.5t-2 -20t0 -25t0.5 -27q189 -5 375 -115q6 -3 33.5 -20t51 -29t33.5 -12q19 0 41 18l23 -18l-170 -246l-23 16q5 20 5 23q0 27 -26 53.5 t-67 46t-73.5 31.5t-61.5 20q-61 16 -141 23v-744q102 6 184 37q23 9 48 20t59.5 29.5t56 40.5t21.5 43q0 12 -5 27l23 16l170 -245l-23 -17q-26 17 -41 17q-10 0 -33.5 -12.5t-51 -29.5t-33.5 -20q-174 -101 -375 -115v-59q0 -32 16 -49t49 -25v-26h-274v26q16 4 28 9.5 t19 14.5t11.5 15.5t6 20.5t2 20.5t0 26t-0.5 26.5q-169 14 -300.5 84t-210.5 199t-79 299zM393 686q0 -140 86.5 -232t227.5 -128v718q-140 -34 -227 -126.5t-87 -231.5z" />
<glyph unicode="&#xa3;" d="M141 178q110 59 154.5 130t44.5 194q0 16 -1 34t-2.5 39.5t-2.5 34.5h-82q-55 0 -72 -65h-33v323h33q4 -19 12 -31t14 -19t21.5 -10t22 -3.5t29.5 0t30 0.5q-14 133 -14 172q0 86 31 156.5t82.5 117t121 78.5t144.5 46t155 14q247 0 416 -125q101 -80 139 -80q16 0 29 10 l21 -27l-291 -209l-21 27q19 8 19 33q0 22 -31 53q-90 86 -252 86q-53 0 -98.5 -10t-85.5 -32.5t-63 -63.5t-23 -97q0 -26 10 -149h227q32 0 48 15t26 48h31v-323h-31q-10 33 -26 49t-48 16h-204q6 -105 6 -106q0 -90 -23.5 -145.5t-87.5 -116.5q107 28 186 28q76 0 177 -24 q85 -23 118 -23q42 0 85.5 24.5t43.5 63.5q0 25 -22 41l22 23l289 -221l-20 -23q-20 12 -37 12q-9 0 -20.5 -4t-25.5 -12t-23.5 -14t-23.5 -15.5t-18 -11.5q-75 -48 -129.5 -68t-130.5 -20q-65 0 -192 22.5t-193 22.5q-203 0 -364 -80z" />
<glyph unicode="&#xa4;" horiz-adv-x="1570" d="M43 176l23 23q33 -19 51 -19q12 0 35.5 17.5t42 36t43 45t26.5 28.5q-108 159 -108 375q0 219 110 377l-104 102q-23 23 -47 23q-19 0 -49 -17l-23 23l236 235l22 -24q-18 -31 -18 -49q0 -23 24 -47l119 -119q156 80 360 80q203 0 357 -82l121 121q22 22 22 47 q0 21 -16 49l22 24l236 -235l-23 -23q-34 17 -51 17q-24 0 -47 -23l-100 -102q108 -156 108 -377q0 -218 -108 -377l100 -100q25 -25 47 -25q18 0 51 19l23 -23l-236 -235l-22 22q16 32 16 51q0 23 -22 45l-121 121q-163 -82 -357 -82q-203 0 -360 82l-119 -121 q-24 -24 -24 -47q0 -17 18 -49l-22 -22zM428 682q0 -159 99 -265t257 -106q159 0 258 106t99 265q0 161 -99 267t-258 106t-257.5 -106.5t-98.5 -266.5z" />
<glyph unicode="&#xa5;" d="M82 1333v33h541v-33q-28 -3 -48 -19t-20 -42q0 -17 17 -46t20 -36l141 -363l148 363q3 8 13 24t17 30.5t7 25.5q0 27 -19.5 43.5t-48.5 19.5v33h528v-33q-27 -4 -51.5 -17t-46 -36t-35.5 -41.5t-33 -46.5l-100 -158h139q32 0 49 16t25 48h31v-340h-31q-15 80 -74 80h-233 l-119 -236h270q32 0 49 16t25 48h31v-340h-31q-9 38 -24.5 57.5t-49.5 19.5h-290v-299q0 -32 16.5 -47.5t48.5 -23.5v-33h-428v33q33 8 49.5 24t16.5 47v299h-291q-34 0 -49.5 -20.5t-22.5 -56.5h-33v340h33q8 -33 24 -48.5t48 -15.5h272l-119 236h-235q-33 0 -49 -21.5 t-23 -58.5h-33v340h33q8 -33 24 -48.5t48 -15.5h139q-6 10 -37 61t-43.5 71t-38.5 55t-51 61q-24 25 -43.5 36t-52.5 15z" />
<glyph unicode="&#xa6;" horiz-adv-x="1024" d="M412 313h202v-655h-202v655zM412 641v725h202v-725h-202z" />
<glyph unicode="&#xa7;" horiz-adv-x="1374" d="M96 -12l174 266l23 -14q-10 -25 -10 -35q0 -41 94 -96q130 -76 354 -76q45 0 95.5 7.5t107 24.5t93 53t36.5 85q0 38 -30.5 63.5t-82.5 38t-119.5 20.5t-142 15t-148.5 17.5t-141.5 31.5t-119.5 53t-82.5 87t-30.5 128q0 11 4 35q13 93 46 138.5t118 93.5 q-87 43 -126.5 99t-39.5 148q0 79 29.5 142t77.5 103t113.5 66.5t133 37t140.5 10.5q145 0 268 -33q13 -3 64 -19.5t96 -30t59 -13.5q13 0 39 26l22 -10l-135 -279l-24 11q6 15 6 32q0 24 -47 50q-121 69 -336 69q-30 0 -63 -2.5t-77 -11t-77.5 -22.5t-57.5 -40.5t-24 -60.5 q0 -21 9.5 -37.5t29 -27.5t37 -18t46.5 -11.5t43.5 -6.5t40.5 -4q8 -1 11 -1l190 -21q57 -6 98.5 -12.5t97 -19t95 -28.5t81 -43t67.5 -60t42.5 -81t16.5 -106q0 -85 -36 -154.5t-107 -107.5q83 -58 113 -105t30 -139q0 -74 -23 -133.5t-64.5 -100t-93 -69.5t-115.5 -44.5 t-125 -22.5t-128 -7q-153 0 -271 34.5t-263 115.5q-20 12 -35 12q-6 0 -12.5 -3t-11 -5.5t-12 -8t-9.5 -6.5zM375 692q0 -36 18 -57q12 -15 41 -26t51 -15.5t62 -9.5t45 -6l289 -43q44 18 65 28t53.5 31.5t47 49.5t14.5 65q0 38 -17.5 59t-54.5 35q-53 23 -164 35l-264 28 q-35 -14 -61.5 -27t-58 -34.5t-49 -50.5t-17.5 -62z" />
<glyph unicode="&#xa8;" horiz-adv-x="1024" d="M143 1337q0 60 42 102t102 42t101.5 -42t41.5 -102q0 -59 -42 -101t-101 -42t-101.5 42.5t-42.5 100.5zM594 1337q0 60 41.5 102t101.5 42t102 -42t42 -102q0 -58 -42.5 -100.5t-101.5 -42.5t-101 42t-42 101z" />
<glyph unicode="&#xa9;" horiz-adv-x="1808" d="M92 682q0 135 44 250.5t121 198.5t180.5 142t223 87.5t248.5 28.5t248.5 -28.5t223 -87.5t180.5 -142t121 -198.5t44 -250.5t-44 -250t-121 -198t-180.5 -142t-223 -88t-248.5 -29t-248.5 29t-223 88t-180.5 142t-121 198t-44 250zM233 682q0 -142 54.5 -256t148 -185.5 t214.5 -109t259 -37.5t259 37.5t214.5 109t148 185.5t54.5 256q0 114 -35.5 211t-98 166t-148 117.5t-185 72t-209.5 23.5t-209.5 -23.5t-185 -72t-148 -117.5t-98 -166t-35.5 -211zM432 682q0 102 38.5 183.5t105 133.5t152.5 79.5t185 27.5q143 0 299 -78q3 -2 20 -11.5 t29.5 -17t26.5 -14t19 -6.5q8 0 26 18l27 -18l-121 -180l-25 18q0 3 1.5 9.5t1.5 9.5q0 8 -4 16t-13.5 15t-15 11t-18 11t-13.5 8q-106 59 -217 59q-134 0 -222.5 -71.5t-88.5 -202.5q0 -129 89 -200.5t222 -71.5q115 0 217 57q64 32 64 61q0 3 -1.5 10.5t-1.5 10.5l25 16 l121 -178l-27 -18q-12 18 -24 18q-6 0 -21 -7.5t-32.5 -18.5t-22.5 -13q-87 -47 -159 -68.5t-161 -21.5q-99 0 -185 27.5t-152.5 79.5t-105 133.5t-38.5 183.5z" />
<glyph unicode="&#xaa;" horiz-adv-x="1046" d="M193 512l2 258h22q4 -20 8 -31.5t15.5 -21.5t29.5 -10h502q41 0 53 63h23v-258h-23q-4 20 -8 32t-15.5 23t-29.5 11h-502q-26 0 -36.5 -17t-16.5 -49h-24zM195 1337l28 19q9 -13 19 -13l12 5q95 41 227 41q43 0 85 -6t86 -21.5t77.5 -38.5t54.5 -61t21 -86v-302 q0 -5 1 -8.5t1.5 -6.5t3 -5.5t3.5 -4t5 -3.5t5.5 -2.5t6.5 -1.5t6 -1.5t7.5 -1.5t7.5 -1v-27h-168v63q-42 -45 -82 -62t-104 -17q-65 0 -129.5 20t-115 68.5t-50.5 115.5q0 52 29 92.5t75 63.5t96 35t97 12q61 0 101 -15t83 -57v54q0 33 -20.5 57.5t-53 36.5t-63.5 17t-62 5 q-43 0 -116.5 -11.5t-73.5 -31.5q0 -7 4 -12t4 -8l-29 -16zM322 993q0 -36 36.5 -60.5t76.5 -33t75 -8.5q36 0 73 8.5t69 33.5t32 62q0 40 -30 66.5t-66.5 35.5t-75.5 9q-40 0 -80 -9t-75 -36t-35 -68z" />
<glyph unicode="&#xab;" horiz-adv-x="997" d="M123 580l194 403h172l-196 -403l196 -402h-172zM479 580l195 403h172l-195 -403l195 -402h-172z" />
<glyph unicode="&#xac;" horiz-adv-x="1024" d="M61 406v141h902v-547h-328v406h-574z" />
<glyph unicode="&#xad;" horiz-adv-x="454" d="M0 387v346h33q8 -33 23.5 -49t47.5 -16h246q32 0 48 16t26 49h31v-346h-31q-10 33 -26 48.5t-48 15.5h-246q-55 0 -71 -64h-33z" />
<glyph unicode="&#xae;" horiz-adv-x="1126" d="M96 1133q0 199 132.5 317.5t334.5 118.5t334.5 -118.5t132.5 -317.5t-132.5 -317t-334.5 -118t-334.5 118t-132.5 317zM182 1133q0 -161 109.5 -260t271.5 -99t271.5 99t109.5 260q0 160 -109.5 260t-271.5 100t-271.5 -100t-109.5 -260zM315 915v23q10 -1 16.5 5t6.5 15 v367q0 5 -2.5 8.5t-5 4.5t-8 2.5t-7.5 2.5v23h297q43 0 74 -4.5t62 -18t47 -42.5t16 -72q0 -58 -30.5 -87t-90.5 -44q76 -99 98 -131q1 -1 4 -4.5t5 -5.5t4 -3q13 -16 37 -16v-23h-183v23q17 0 17 6q0 3 -24 37t-51.5 72t-29.5 41h-114v-140q0 -12 22 -16v-23h-160z M440 1174h166h8q18 0 27.5 0.5t24.5 3t23 8t14 16.5t6 27q0 26 -16.5 39t-32.5 14.5t-46 1.5h-8h-166v-110z" />
<glyph unicode="&#xaf;" horiz-adv-x="1024" d="M205 1231v270h26q10 -34 25.5 -49.5t48.5 -15.5h414q32 0 49 16t25 49h26v-270h-26q-8 32 -25 47.5t-49 15.5h-414q-32 0 -48 -15t-26 -48h-26z" />
<glyph unicode="&#xb0;" horiz-adv-x="944" d="M150 1079q0 135 94 230.5t229 95.5q132 0 227 -95t95 -227q0 -134 -93.5 -228.5t-228.5 -94.5q-133 0 -228 93t-95 226zM270 1081q0 -84 59 -144t142 -60t143 59.5t60 142.5q0 84 -59.5 146.5t-143.5 62.5q-82 0 -141.5 -62t-59.5 -145z" />
<glyph unicode="&#xb1;" horiz-adv-x="1570" d="M233 135h31q7 -32 21.5 -47.5t44.5 -15.5h909q30 0 45 15.5t23 47.5h28v-325h-28q-8 34 -22 49.5t-46 15.5h-909q-30 0 -43.5 -16t-22.5 -49h-31v325zM233 520v326h31q7 -32 21.5 -49t44.5 -17h356v357q0 30 -15.5 44.5t-47.5 22.5v29h325v-29q-34 -8 -49.5 -22 t-15.5 -45v-357h356q30 0 45 16.5t23 49.5h28v-326h-28q-8 33 -22.5 48.5t-45.5 15.5h-356v-287q0 -32 15.5 -46t49.5 -22v-28h-325v28q32 8 47.5 23t15.5 45v287h-356q-30 0 -44 -15.5t-22 -48.5h-31z" />
<glyph unicode="&#xb2;" horiz-adv-x="968" d="M63 510v41q0 66 13.5 113t50.5 96q49 62 111.5 100t160.5 78q11 4 45.5 17t55.5 22t52 25.5t49.5 33t32 40t13.5 50.5q0 56 -43 79.5t-104 23.5q-59 0 -126.5 -22t-101.5 -60q-16 -16 -16 -35q0 -9 10 -39l-22 -22l-181 180l25 20q20 -12 37 -12q6 0 13.5 3.5t11 6 t11.5 9.5t9 8q143 114 348 114q52 0 99.5 -8.5t92 -28t76.5 -48.5t51 -74t19 -101q0 -100 -67 -165t-177 -111q-135 -56 -168 -68q-1 0 -18.5 -6.5t-21.5 -8.5t-19 -8t-21.5 -10t-17.5 -10.5t-19 -13t-14 -14.5h521q19 0 27 8.5t13 29.5h33v-233h-33q-5 19 -13.5 27t-26.5 8 h-680h-5q-19 0 -27 -1.5t-15 -9t-11 -24.5h-33z" />
<glyph unicode="&#xb3;" horiz-adv-x="968" d="M35 612l106 230l31 -13q-4 -8 -4 -16q0 -24 24 -46t62 -36.5t66.5 -23t54.5 -13.5q68 -10 121 -10q31 0 62 5t64.5 16t54.5 35t21 57q0 108 -194 108h-16h-20.5t-18.5 -1t-20.5 -4t-15.5 -7.5t-13.5 -11.5t-6.5 -17h-33v211h33q2 -11 7 -18.5t13 -12t14 -7.5t18 -4 l18 -1.5t20.5 0t18.5 0.5q27 0 54 4t57 13.5t48.5 30t18.5 50.5t-18.5 51.5t-49 31t-57 13t-55.5 3.5q-47 0 -105 -10q-45 -8 -105.5 -33.5t-60.5 -55.5q0 -12 11 -30l-27 -19l-156 179l25 18q25 -10 39 -10q5 0 29 12q167 100 362 100q61 0 119.5 -12t114 -38t89 -75 t33.5 -114q0 -107 -100 -164q135 -51 135 -178q0 -61 -26.5 -108.5t-68 -76.5t-97 -48.5t-108.5 -26.5t-107 -7q-170 0 -318 64q-4 1 -21.5 9t-31.5 13t-21 5q-14 0 -43 -23z" />
<glyph unicode="&#xb4;" horiz-adv-x="1024" d="M395 1243v27q24 0 32.5 6.5t16.5 30.5q3 9 17.5 51.5t25.5 77.5t11 47q0 4 -1.5 7t-2.5 4.5t-5 3t-5.5 1.5t-6.5 1t-6 1v29h293v-29q-21 0 -29.5 -5t-21.5 -21l-135 -172q-7 -7 -7 -17q0 -16 25 -16v-27h-201z" />
<glyph unicode="&#xb5;" horiz-adv-x="983" d="M-12 -276q0 34 18 126q30 144 47 328q7 73 11 147.5t5 161t1.5 141.5t0 161t-0.5 147h268v-588v-11q0 -32 0.5 -50.5t3.5 -52t11 -54t21 -42.5t35 -33t52 -11q33 0 66 19t52 39t46 53v731h266v-666v-24v-27t1 -24.5t3.5 -25.5t6 -21.5t10.5 -20t15.5 -14t21 -10.5 t28.5 -3q22 0 55 11v-41q-261 -95 -272 -95q-19 0 -34.5 7.5t-25.5 16.5t-20 27t-15 29.5t-13 33.5t-11 30q-44 -51 -74 -79t-78.5 -49.5t-105.5 -21.5q-89 0 -137 40.5t-84 129.5v-30q0 -95 31 -193q3 -9 14.5 -44t18.5 -57t13.5 -51t6.5 -47q0 -51 -34 -84.5t-85 -33.5 q-139 0 -139 125z" />
<glyph unicode="&#xb6;" horiz-adv-x="1306" d="M41 1010q0 85 38 154.5t101 112.5t139.5 66t157.5 23h774v-33q-38 -7 -50.5 -26t-12.5 -60v-1292q0 -41 12.5 -60t50.5 -26v-33h-254v1407h-166v-1407h-253v33q38 7 50.5 26t12.5 60v680h-180q-108 0 -203 45.5t-156 133t-61 196.5z" />
<glyph unicode="&#xb7;" horiz-adv-x="360" d="M0 696q0 75 52.5 128t127.5 53t127.5 -53t52.5 -128q0 -74 -53 -127t-127 -53t-127 53t-53 127z" />
<glyph unicode="&#xb8;" horiz-adv-x="1024" d="M332 -406l22 46q58 -15 95 -15q50 0 91.5 19t41.5 63q0 28 -20 48t-48 20q-42 0 -72 -33l-28 16l17 34l20 40t18 33q8 13 12.5 15.5t18.5 2.5q42 0 81 -6t79 -21.5t64 -47t24 -76.5q0 -58 -36.5 -96.5t-85 -53t-104.5 -14.5q-113 0 -190 26z" />
<glyph unicode="&#xb9;" horiz-adv-x="968" d="M293 1061v227h33q4 -8 4 -14q7 -21 24 -21q12 0 37 7t29 8v28q0 13 -6 21t-13.5 11t-21.5 7v31h280v-31q-23 -5 -32 -12t-9 -27v-682q0 -13 6.5 -20.5t12.5 -9.5t22 -6v-31h-280v31q1 0 3 1q32 9 37 25q1 5 1 10v502q-8 -2 -26 -5t-25 -5t-17.5 -7t-16.5 -14.5t-9 -23.5 h-33z" />
<glyph unicode="&#xba;" horiz-adv-x="1046" d="M195 512v258h24q4 -20 8 -31.5t15.5 -21.5t29.5 -10h502q13 0 22.5 5t15 15.5t8 19.5t5.5 23h25v-258h-23q-4 20 -8 32t-15.5 23t-29.5 11h-502q-26 0 -36.5 -17t-16.5 -49h-24zM203 1106q0 132 92 208.5t227 76.5q137 0 228.5 -76t91.5 -209t-91.5 -209t-228.5 -76 q-135 0 -227 76t-92 209zM344 1106q0 -76 51 -124t127 -48t127 48t51 124t-51 124t-127 48t-127 -48t-51 -124z" />
<glyph unicode="&#xbb;" horiz-adv-x="997" d="M150 178l196 402l-196 403h174l192 -403l-192 -402h-174zM508 178l194 402l-194 403h172l194 -403l-194 -402h-172z" />
<glyph unicode="&#xbc;" horiz-adv-x="2527" d="M293 1061v227h33q4 -8 4 -14q7 -21 24 -21q12 0 37 7t29 8v28q0 13 -6 21t-13.5 11t-21.5 7v31h280v-31q-23 -5 -32 -12t-9 -27v-682q0 -13 6.5 -20.5t12.5 -9.5t22 -6v-31h-280v31q1 0 3 1q32 9 37 25q1 5 1 10v502q-8 -2 -26 -5t-25 -5t-17.5 -7t-16.5 -14.5t-9 -23.5 h-33zM694 0v33q19 3 34.5 7.5t28.5 14t21.5 16t19.5 23t16 23.5t17.5 29.5t16.5 29.5l610 1016q31 50 31 76t-25 44t-53 21v33h420v-33q-13 -2 -23 -4t-17.5 -4t-15 -7.5t-11 -7t-11 -11t-9 -11.5t-10.5 -15.5t-12 -17.5q-22 -32 -41 -63l-616 -1040q-27 -47 -27 -60 q0 -50 76 -59v-33h-420zM1626 98v178l434 453q27 27 27 39q0 14 -33 20v31h356v-31q-14 -4 -20 -6.5t-13 -10t-7 -19.5v-471h40q20 0 28 9t13 32h33v-224h-33q-3 12 -8 19.5t-9 11t-12.5 5.5t-13.5 2t-18 -0.5t-20 -0.5v-67q0 -13 6 -20.5t12.5 -10t21.5 -6.5v-31h-280v31 q17 4 26.5 9.5t13 16t3.5 18t-1 27.5t-1 33h-459q-29 0 -39 -6t-16 -31h-31zM1858 281h313v331z" />
<glyph unicode="&#xbd;" horiz-adv-x="2527" d="M293 1061v227h33q4 -8 4 -14q7 -21 24 -21q12 0 37 7t29 8v28q0 13 -6 21t-13.5 11t-21.5 7v31h280v-31q-23 -5 -32 -12t-9 -27v-682q0 -13 6.5 -20.5t12.5 -9.5t22 -6v-31h-280v31q1 0 3 1q32 9 37 25q1 5 1 10v502q-8 -2 -26 -5t-25 -5t-17.5 -7t-16.5 -14.5t-9 -23.5 h-33zM694 0v33q19 3 34.5 7.5t28.5 14t21.5 16t19.5 23t16 23.5t17.5 29.5t16.5 29.5l610 1016q31 50 31 76t-25 44t-53 21v33h420v-33q-13 -2 -23 -4t-17.5 -4t-15 -7.5t-11 -7t-11 -11t-9 -11.5t-10.5 -15.5t-12 -17.5q-22 -32 -41 -63l-616 -1040q-27 -47 -27 -60 q0 -50 76 -59v-33h-420zM1620 6q0 66 13 112t50 95q49 62 112 100t161 78l108 45q30 13 49.5 23.5t43 28t35.5 41t12 51.5q0 102 -148 102q-59 0 -126 -22t-101 -60q-17 -17 -17 -35q0 -6 11 -39l-23 -22l-180 180l25 21q22 -13 36 -13q6 0 13.5 3.5t11 6t11.5 9.5t9 8 q144 115 349 115q66 0 124 -14t107.5 -43.5t78 -81.5t28.5 -122q0 -100 -67 -165t-177 -111q-135 -56 -168 -68q-1 -1 -16 -6t-18.5 -6.5t-16.5 -7t-18.5 -8t-16.5 -8t-17 -10t-14 -11t-14 -12.5h520q19 0 27.5 8.5t13.5 28.5h33v-234h-33q-5 20 -13.5 28.5t-27.5 8.5h-680 q-30 0 -40.5 -5.5t-16.5 -31.5h-33v43z" />
<glyph unicode="&#xbe;" horiz-adv-x="2527" d="M35 612l106 230l31 -13q-4 -8 -4 -16q0 -24 24 -46t62 -36.5t66.5 -23t54.5 -13.5q68 -10 121 -10q31 0 62 5t64.5 16t54.5 35t21 57q0 108 -194 108h-16h-20.5t-18.5 -1t-20.5 -4t-15.5 -7.5t-13.5 -11.5t-6.5 -17h-33v211h33q2 -11 7 -18.5t13 -12t14 -7.5t18 -4 l18 -1.5t20.5 0t18.5 0.5q27 0 54 4t57 13.5t48.5 30t18.5 50.5t-18.5 51.5t-49 31t-57 13t-55.5 3.5q-47 0 -105 -10q-45 -8 -105.5 -33.5t-60.5 -55.5q0 -12 11 -30l-27 -19l-156 179l25 18q25 -10 39 -10q5 0 29 12q167 100 362 100q61 0 119.5 -12t114 -38t89 -75 t33.5 -114q0 -107 -100 -164q135 -51 135 -178q0 -61 -26.5 -108.5t-68 -76.5t-97 -48.5t-108.5 -26.5t-107 -7q-170 0 -318 64q-4 1 -21.5 9t-31.5 13t-21 5q-14 0 -43 -23zM694 0v33q19 3 34.5 7.5t28.5 14t21.5 16t19.5 23t16 23.5t17.5 29.5t16.5 29.5l610 1016 q31 50 31 76t-25 44t-53 21v33h420v-33q-13 -2 -23 -4t-17.5 -4t-15 -7.5t-11 -7t-11 -11t-9 -11.5t-10.5 -15.5t-12 -17.5q-22 -32 -41 -63l-616 -1040q-27 -47 -27 -60q0 -50 76 -59v-33h-420zM1624 98v178l436 453q27 27 27 39q0 14 -33 20v31h356v-31q-14 -4 -20 -6.5 t-13 -10t-7 -19.5v-471h40q20 0 28 9t13 32h33v-224h-33q-3 12 -8 19.5t-9 11t-12.5 5.5t-13.5 2t-18 -0.5t-20 -0.5v-67q0 -13 6 -20.5t12.5 -10t21.5 -6.5v-31h-280v31q17 4 26.5 9.5t13 16t3.5 18t-1 27.5t-1 33h-461q-30 0 -39.5 -5.5t-13.5 -31.5h-33zM1855 281h316 v331z" />
<glyph unicode="&#xbf;" horiz-adv-x="999" d="M123 279q0 48 14 92t43 86t54 70.5t67 70.5q53 53 76 86q22 30 27.5 53.5t5.5 65.5q0 29 -13.5 40.5t-44.5 18.5v33h328v-33q-34 -13 -45 -24q-5 -6 -9 -12t-7 -14.5t-5 -14t-4 -16t-2.5 -14.5l-2 -16t-1.5 -14q-9 -68 -45 -125q-15 -25 -61 -81.5t-74.5 -105 t-28.5 -93.5q0 -67 45 -105.5t113 -38.5q45 0 94 19q41 16 81 52.5t40 72.5q0 19 -8 35l26 18l172 -252l-26 -18q-20 16 -41 16q-9 0 -22 -5.5t-22.5 -11t-23.5 -15t-18 -11.5q-87 -58 -161 -85.5t-165 -27.5q-94 0 -173 33t-131 104t-52 167zM336 1225q0 67 48 115.5 t116 48.5t116 -48.5t48 -115.5t-48 -115.5t-116 -48.5t-116 48.5t-48 115.5z" />
<glyph unicode="&#xc0;" horiz-adv-x="1665" d="M6 0v33q30 5 51.5 20.5t32 32.5t27.5 51l501 1051q23 48 23 80q0 48 -57 65v33h483v-33q-57 -16 -57 -59q0 -30 18 -66l520 -1052q15 -30 23 -44t23.5 -34.5t34.5 -30.5t44 -14v-33h-502v33q66 8 66 61q0 26 -20 62l-95 192h-620l-90 -192q-19 -38 -19 -64q0 -46 66 -59 v-33h-453zM567 1726v29h293v-29q-1 0 -5 -0.5t-5.5 -1l-4.5 -1.5t-4.5 -2t-3.5 -3t-2.5 -4.5t-0.5 -5.5q0 -12 10.5 -47t25.5 -78t17 -51q8 -24 16.5 -30.5t32.5 -6.5v-27h-201v27q25 0 25 16q0 11 -6 17l-136 172q-13 16 -21.5 21t-29.5 5zM592 535h444l-221 487z" />
<glyph unicode="&#xc1;" horiz-adv-x="1665" d="M6 0v33q30 5 51.5 20.5t32 32.5t27.5 51l501 1051q23 48 23 80q0 48 -57 65v33h483v-33q-57 -16 -57 -59q0 -30 18 -66l520 -1052q15 -30 23 -44t23.5 -34.5t34.5 -30.5t44 -14v-33h-502v33q66 8 66 61q0 26 -20 62l-95 192h-620l-90 -192q-19 -38 -19 -64q0 -46 66 -59 v-33h-453zM592 535h444l-221 487zM729 1468v27q24 0 32.5 6.5t16.5 30.5q2 8 17 51t25.5 78t10.5 47q0 3 -0.5 5.5t-2.5 4.5t-3.5 3t-4.5 2l-4.5 1.5t-5.5 1t-5 0.5v29h293v-29q-21 0 -29.5 -5t-21.5 -21l-136 -172q-6 -6 -6 -17q0 -16 25 -16v-27h-201z" />
<glyph unicode="&#xc2;" horiz-adv-x="1665" d="M6 0v33q30 5 51.5 20.5t32 32.5t27.5 51l501 1051q23 48 23 80q0 48 -57 65v33h483v-33q-57 -16 -57 -59q0 -30 18 -66l520 -1052q15 -30 23 -44t23.5 -34.5t34.5 -30.5t44 -14v-33h-502v33q66 8 66 61q0 26 -20 62l-95 192h-620l-90 -192q-19 -38 -19 -64q0 -46 66 -59 v-33h-453zM512 1468v27q18 0 30 5.5t18 11t22 24.5l127 150q10 10 10 24q0 16 -33 16v29h256v-29q-31 0 -31 -16q0 -6 17 -29l153 -168q10 -12 18.5 -15t26.5 -3v-27h-260v27q33 0 33 14q0 6 -48 59t-65 70q-3 -4 -29.5 -34t-47.5 -57t-21 -34q0 -16 19 -16q2 -2 10 -2v-27 h-205zM592 535h444l-221 487z" />
<glyph unicode="&#xc3;" horiz-adv-x="1665" d="M6 0v33q30 5 51.5 20.5t32 32.5t27.5 51l501 1051q23 48 23 80q0 48 -57 65v33h483v-33q-57 -16 -57 -59q0 -30 18 -66l520 -1052q15 -30 23 -44t23.5 -34.5t34.5 -30.5t44 -14v-33h-502v33q66 8 66 61q0 26 -20 62l-95 192h-620l-90 -192q-19 -38 -19 -64q0 -46 66 -59 v-33h-453zM473 1579l10 20q12 -4 17 -4t8.5 1.5t7 5t5 5.5t5 7.5t4.5 7.5q26 42 67 75.5t81 33.5q42 0 98 -25.5t107.5 -50.5t83.5 -25q19 0 32 15.5t13 35.5q0 17 -17 31l13 23l129 -93l-13 -24q-12 6 -16 6t-20 -21t-36 -46.5t-53 -46.5t-67 -21q-46 0 -148 50t-133 50 q-18 0 -34.5 -17.5t-16.5 -35.5q0 -10 14 -29l-10 -20zM592 535h444l-221 487z" />
<glyph unicode="&#xc4;" horiz-adv-x="1665" d="M6 0v33q30 5 51.5 20.5t32 32.5t27.5 51l501 1051q23 48 23 80q0 48 -57 65v33h483v-33q-57 -16 -57 -59q0 -30 18 -66l520 -1052q15 -30 23 -44t23.5 -34.5t34.5 -30.5t44 -14v-33h-502v33q66 8 66 61q0 26 -20 62l-95 192h-620l-90 -192q-19 -38 -19 -64q0 -46 66 -59 v-33h-453zM465 1610q0 60 41.5 101.5t101.5 41.5t102 -41.5t42 -101.5q0 -58 -43 -101t-101 -43t-100.5 42.5t-42.5 101.5zM592 535h444l-221 487zM915 1610q0 60 42 101.5t102 41.5t101.5 -41.5t41.5 -101.5q0 -59 -42.5 -101.5t-100.5 -42.5q-59 0 -101.5 43t-42.5 101z " />
<glyph unicode="&#xc5;" horiz-adv-x="1665" d="M6 0v33q30 5 51.5 20.5t32 32.5t27.5 51l501 1051q23 48 23 80q0 48 -57 65v33h483v-33q-57 -16 -57 -59q0 -30 18 -66l520 -1052q15 -30 23 -44t23.5 -34.5t34.5 -30.5t44 -14v-33h-502v33q66 8 66 61q0 26 -20 62l-95 192h-620l-90 -192q-19 -38 -19 -64q0 -46 66 -59 v-33h-453zM553 1647q0 63 44.5 110.5t104.5 68.5t121 21q45 0 91 -12.5t87 -36.5t67 -63.5t26 -87.5q0 -63 -44.5 -111t-105 -69t-121.5 -21q-60 0 -120 21.5t-105 69t-45 110.5zM592 535h444l-221 487zM676 1647q0 -51 47 -80t100 -29t100.5 29t47.5 80t-47.5 79.5 t-100.5 28.5t-100 -29t-47 -79z" />
<glyph unicode="&#xc6;" horiz-adv-x="2381" d="M-27 0v33q25 4 42 11.5t32.5 25.5t20.5 26.5t24 40.5l606 1051q33 59 33 86q0 25 -15 37.5t-44 21.5v33h1493q31 0 47 15.5t24 48.5h33v-353h-33q-16 64 -71 64h-854v-326h553q32 0 47.5 16t23.5 50h33v-346h-33q-8 32 -23.5 48.5t-47.5 16.5h-553v-375h876q32 0 48 15.5 t26 48.5h31v-352h-31q-10 33 -26 48t-48 15h-1239v33q64 16 64 71v244h-490l-110 -192q-27 -54 -27 -68q0 -38 59 -55v-33h-471zM631 535h381v606h-43z" />
<glyph unicode="&#xc7;" horiz-adv-x="1718" d="M92 682q0 137 42 252.5t116 198.5t175 141t220 86.5t250 28.5q156 0 276.5 -33.5t258.5 -114.5q6 -3 29 -16.5t40 -23.5t37 -18.5t29 -8.5q19 0 45 26l26 -18l-190 -285l-27 18q2 8 2 27q0 24 -19.5 47t-40 36t-46.5 28l-8 4q-175 100 -373 100q-235 0 -373 -117 q-80 -68 -123 -161t-43 -197q0 -103 43.5 -196.5t122.5 -159.5q142 -117 373 -117q202 0 373 98q114 67 114 117q0 19 -2 27l27 18l190 -285l-26 -18q-27 27 -45 27q-13 0 -38.5 -12.5t-57 -32t-39.5 -23.5q-148 -78 -267.5 -114t-267.5 -36q-165 0 -309 46t-255 132.5 t-175 223t-64 305.5zM647 -438l25 51q59 -16 110 -16q35 0 66.5 7t58.5 29.5t27 57.5q0 32 -23 55t-55 23q-51 0 -82 -39l-33 20q41 84 64 125q12 19 35 19q49 0 94 -7.5t91 -25.5t73.5 -55t27.5 -89q0 -66 -41.5 -110t-97 -60t-121.5 -16q-137 0 -219 31z" />
<glyph unicode="&#xc8;" horiz-adv-x="1556" d="M123 0v33q32 8 47.5 24t15.5 47v1158q0 31 -15.5 47t-47.5 24v33h1216q31 0 47.5 16t24.5 48h33v-353h-33q-16 64 -72 64h-854v-326h553q32 0 48 16.5t24 49.5h33v-346h-33q-8 32 -24 48.5t-48 16.5h-553v-375h877q32 0 48 15.5t26 48.5h30v-352h-30q-10 33 -26 48 t-48 15h-1239zM567 1726v29h293v-29q-1 0 -5 -0.5t-5.5 -1l-4.5 -1.5t-4.5 -2t-3.5 -3t-2.5 -4.5t-0.5 -5.5q0 -12 10.5 -47t25.5 -78t17 -51q8 -24 16.5 -30.5t32.5 -6.5v-27h-201v27q25 0 25 16q0 11 -6 17l-136 172q-13 16 -21.5 21t-29.5 5z" />
<glyph unicode="&#xc9;" horiz-adv-x="1556" d="M123 0v33q32 8 47.5 24t15.5 47v1158q0 31 -15.5 47t-47.5 24v33h1216q31 0 47.5 16t24.5 48h33v-353h-33q-16 64 -72 64h-854v-326h553q32 0 48 16.5t24 49.5h33v-346h-33q-8 32 -24 48.5t-48 16.5h-553v-375h877q32 0 48 15.5t26 48.5h30v-352h-30q-10 33 -26 48 t-48 15h-1239zM702 1468v27q25 0 33.5 7t16.5 30q2 8 17 51t25.5 78t10.5 47q0 4 -1.5 7t-2.5 4.5t-5 3t-5.5 1.5t-6.5 1t-6 1v29h293v-29q-21 0 -29.5 -5t-21.5 -21l-135 -172q-6 -6 -6 -17q0 -16 24 -16v-27h-201z" />
<glyph unicode="&#xca;" horiz-adv-x="1556" d="M123 0v33q32 8 47.5 24t15.5 47v1158q0 31 -15.5 47t-47.5 24v33h1216q31 0 47.5 16t24.5 48h33v-353h-33q-16 64 -72 64h-854v-326h553q32 0 48 16.5t24 49.5h33v-346h-33q-8 32 -24 48.5t-48 16.5h-553v-375h877q32 0 48 15.5t26 48.5h30v-352h-30q-10 33 -26 48 t-48 15h-1239zM512 1468v27q18 0 30 5.5t18 11t22 24.5l127 150q10 10 10 24q0 16 -33 16v29h256v-29q-31 0 -31 -16q0 -6 17 -29l153 -168q10 -12 18.5 -15t26.5 -3v-27h-260v27q33 0 33 14q0 6 -48 59t-65 70q-3 -4 -29.5 -34t-47.5 -57t-21 -34q0 -16 19 -16q2 -2 10 -2 v-27h-205z" />
<glyph unicode="&#xcb;" horiz-adv-x="1556" d="M123 0v33q32 8 47.5 24t15.5 47v1158q0 31 -15.5 47t-47.5 24v33h1216q31 0 47.5 16t24.5 48h33v-353h-33q-16 64 -72 64h-854v-326h553q32 0 48 16.5t24 49.5h33v-346h-33q-8 32 -24 48.5t-48 16.5h-553v-375h877q32 0 48 15.5t26 48.5h30v-352h-30q-10 33 -26 48 t-48 15h-1239zM436 1610q0 60 42 101.5t102 41.5t101.5 -41.5t41.5 -101.5q0 -59 -42.5 -101.5t-100.5 -42.5t-101 43t-43 101zM887 1610q0 60 41.5 101.5t101.5 41.5t102 -41.5t42 -101.5q0 -58 -43 -101t-101 -43t-100.5 42.5t-42.5 101.5z" />
<glyph unicode="&#xcc;" horiz-adv-x="671" d="M57 1726v29h293v-29q-1 0 -5 -0.5t-5.5 -1l-4.5 -1.5t-4.5 -2t-3.5 -3t-2.5 -4.5t-0.5 -5.5q0 -12 10.5 -47t25.5 -78t17 -51q8 -24 16.5 -30.5t32.5 -6.5v-27h-201v27q25 0 25 16q0 11 -6 17l-135 172q-13 16 -22 21t-30 5zM123 0v33q32 8 47.5 24t15.5 47v1158 q0 31 -15.5 47t-47.5 24v33h426v-33q-33 -8 -48.5 -24t-15.5 -47v-1158q0 -32 15.5 -47.5t48.5 -23.5v-33h-426z" />
<glyph unicode="&#xcd;" horiz-adv-x="671" d="M123 0v33q32 8 47.5 24t15.5 47v1158q0 31 -15.5 47t-47.5 24v33h426v-33q-33 -8 -48.5 -24t-15.5 -47v-1158q0 -32 15.5 -47.5t48.5 -23.5v-33h-426zM246 1468v27q24 0 32.5 6.5t16.5 30.5q2 8 17 51t25.5 78t10.5 47q0 3 -0.5 5.5t-2.5 4.5t-3.5 3t-4.5 2l-4.5 1.5 t-5.5 1t-5 0.5v29h292v-29q-21 0 -29.5 -5t-21.5 -21l-135 -172q-6 -6 -6 -17q0 -16 24 -16v-27h-200z" />
<glyph unicode="&#xce;" horiz-adv-x="671" d="M29 1468v27q18 0 30 5.5t17 10.5t22 25l127 150q11 11 11 24q0 16 -33 16v29h256v-29q-31 0 -31 -16q0 -8 16 -29l154 -168q10 -12 18.5 -15t26.5 -3v-27h-260v27q33 0 33 14q0 6 -48 59t-65 70q-3 -4 -29.5 -34t-47.5 -57t-21 -34q0 -16 18 -16q2 -2 10 -2v-27h-204z M123 0v33q32 8 47.5 24t15.5 47v1158q0 31 -15.5 47t-47.5 24v33h426v-33q-33 -8 -48.5 -24t-15.5 -47v-1158q0 -32 15.5 -47.5t48.5 -23.5v-33h-426z" />
<glyph unicode="&#xcf;" horiz-adv-x="671" d="M8 1612q0 58 42.5 100.5t101.5 42.5q58 0 100.5 -42.5t42.5 -100.5q0 -60 -41.5 -102t-101.5 -42t-102 42t-42 102zM123 0v33q32 8 47.5 24t15.5 47v1158q0 31 -15.5 47t-47.5 24v33h426v-33q-33 -8 -48.5 -24t-15.5 -47v-1158q0 -32 15.5 -47.5t48.5 -23.5v-33h-426z M377 1612q0 58 42.5 100.5t100.5 42.5q59 0 101.5 -42.5t42.5 -100.5q0 -60 -42 -102t-102 -42t-101.5 42t-41.5 102z" />
<glyph unicode="&#xd0;" horiz-adv-x="1716" d="M14 512v340h33q4 -19 13 -32.5t17 -20t24.5 -9.5t25.5 -3t30.5 0.5t30.5 0.5v474q0 59 -63 71v33h758q169 0 296 -29t230 -116q217 -185 217 -537q0 -356 -217 -539q-54 -46 -117 -76t-133.5 -44.5t-133 -19.5t-142.5 -5h-758v33q63 12 63 71v474h-69q-58 0 -72 -66h-33z M485 225h373q118 0 206.5 25t152.5 96q104 116 104 338q0 220 -104 336q-64 72 -151.5 96.5t-207.5 24.5h-373v-353h308q31 0 47 15.5t24 48.5h33v-340h-33q-17 66 -71 66h-308v-353z" />
<glyph unicode="&#xd1;" horiz-adv-x="1783" d="M123 0v33q33 8 48 23.5t15 47.5v1158q0 32 -15 47.5t-48 23.5v33h465v-33q-43 -10 -43 -47q0 -25 26 -51l754 -784v811q0 32 -16.5 47.5t-48.5 23.5v33h401v-33q-33 -8 -48.5 -23.5t-15.5 -47.5v-1158q0 -32 15.5 -47.5t48.5 -23.5v-33h-428v33q41 10 41 43q0 7 -3 14.5 t-10.5 16.5t-11 13.5t-13.5 14.5l-11 10l-764 791v-832q0 -32 15 -47.5t48 -23.5v-33h-401zM532 1579l11 20q12 -4 16 -4t7.5 1.5t6 3t5.5 5t4 5t4 6.5t4 6q26 42 66.5 75.5t80.5 33.5q42 0 98 -25.5t107.5 -50.5t83.5 -25q19 0 32 15.5t13 35.5q0 18 -16 31l12 23l129 -93 l-12 -24q-12 6 -17 6q-4 0 -20.5 -21t-36 -46.5t-52.5 -46.5t-67 -21q-45 0 -147 50t-133 50q-18 0 -35 -17.5t-17 -35.5q0 -9 15 -29l-10 -20z" />
<glyph unicode="&#xd2;" horiz-adv-x="1753" d="M92 682q0 148 56.5 281.5t162.5 232.5q207 193 566 193q350 0 563 -193q106 -97 163.5 -232t57.5 -282q0 -146 -57.5 -280.5t-163.5 -231.5q-215 -195 -563 -195q-356 0 -566 195q-105 98 -162 232t-57 280zM395 682q0 -209 136.5 -341t345.5 -132q208 0 343.5 132.5 t135.5 340.5q0 210 -134.5 342.5t-344.5 132.5t-346 -132.5t-136 -342.5zM625 1726v29h293v-29q-1 0 -6 -1t-6.5 -1t-5.5 -1.5t-5 -3t-2.5 -4.5t-1.5 -7q0 -12 10.5 -47t25.5 -78t17 -51q8 -24 16.5 -30.5t32.5 -6.5v-27h-200v27q24 0 24 16q0 11 -6 17l-135 172 q-13 16 -21.5 21t-29.5 5z" />
<glyph unicode="&#xd3;" horiz-adv-x="1753" d="M92 682q0 148 56.5 281.5t162.5 232.5q207 193 566 193q350 0 563 -193q106 -97 163.5 -232t57.5 -282q0 -146 -57.5 -280.5t-163.5 -231.5q-215 -195 -563 -195q-356 0 -566 195q-105 98 -162 232t-57 280zM395 682q0 -209 136.5 -341t345.5 -132q208 0 343.5 132.5 t135.5 340.5q0 210 -134.5 342.5t-344.5 132.5t-346 -132.5t-136 -342.5zM760 1468v27q24 0 32.5 6.5t16.5 30.5q2 8 17 51t25.5 78t10.5 47q0 3 -0.5 5.5t-2.5 4.5t-3.5 3t-4.5 2l-4.5 1.5t-5.5 1t-5 0.5v29h292v-29q-21 0 -29.5 -5t-21.5 -21l-135 -172q-6 -6 -6 -17 q0 -16 25 -16v-27h-201z" />
<glyph unicode="&#xd4;" horiz-adv-x="1753" d="M92 682q0 148 56.5 281.5t162.5 232.5q207 193 566 193q350 0 563 -193q106 -97 163.5 -232t57.5 -282q0 -146 -57.5 -280.5t-163.5 -231.5q-215 -195 -563 -195q-356 0 -566 195q-105 98 -162 232t-57 280zM395 682q0 -209 136.5 -341t345.5 -132q208 0 343.5 132.5 t135.5 340.5q0 210 -134.5 342.5t-344.5 132.5t-346 -132.5t-136 -342.5zM569 1468v27q18 0 30 5.5t18 11t22 24.5l127 150q10 10 10 24q0 16 -33 16v29h256v-29q-30 0 -30 -16q0 -8 16 -29l154 -168q10 -12 18.5 -15t26.5 -3v-27h-260v27q32 0 32 14q0 6 -48 59.5t-64 69.5 q-3 -4 -29.5 -34t-48 -57t-21.5 -34q0 -16 19 -16q2 -2 10 -2v-27h-205z" />
<glyph unicode="&#xd5;" horiz-adv-x="1753" d="M92 682q0 148 56.5 281.5t162.5 232.5q207 193 566 193q350 0 563 -193q106 -97 163.5 -232t57.5 -282q0 -146 -57.5 -280.5t-163.5 -231.5q-215 -195 -563 -195q-356 0 -566 195q-105 98 -162 232t-57 280zM395 682q0 -209 136.5 -341t345.5 -132q208 0 343.5 132.5 t135.5 340.5q0 210 -134.5 342.5t-344.5 132.5t-346 -132.5t-136 -342.5zM545 1579l10 20q12 -4 16 -4t7.5 1.5t6 3t5.5 5t4 5t4 6.5t4 6q26 42 67 75.5t81 33.5q42 0 97.5 -25.5t107 -50.5t83.5 -25q19 0 32 15.5t13 35.5q0 18 -16 31l12 23l129 -93l-12 -24q-12 6 -16 6 t-20 -21t-36 -46.5t-53 -46.5t-67 -21q-46 0 -148 50t-133 50q-18 0 -34.5 -17.5t-16.5 -35.5q0 -10 14 -29l-10 -20z" />
<glyph unicode="&#xd6;" horiz-adv-x="1753" d="M92 682q0 148 56.5 281.5t162.5 232.5q207 193 566 193q350 0 563 -193q106 -97 163.5 -232t57.5 -282q0 -146 -57.5 -280.5t-163.5 -231.5q-215 -195 -563 -195q-356 0 -566 195q-105 98 -162 232t-57 280zM395 682q0 -209 136.5 -341t345.5 -132q208 0 343.5 132.5 t135.5 340.5q0 210 -134.5 342.5t-344.5 132.5t-346 -132.5t-136 -342.5zM508 1610q0 60 41.5 101.5t101.5 41.5t102 -41.5t42 -101.5q0 -58 -42.5 -101t-101.5 -43q-58 0 -100.5 42.5t-42.5 101.5zM958 1610q0 60 42 101.5t102 41.5t101.5 -41.5t41.5 -101.5 q0 -59 -42.5 -101.5t-100.5 -42.5t-101 43t-43 101z" />
<glyph unicode="&#xd7;" horiz-adv-x="1570" d="M256 383l20 23q37 -21 52 -21q20 0 41 21l276 276l-276 276q-21 21 -41 21q-16 0 -52 -18l-20 20l229 229l21 -20q-19 -38 -19 -51q0 -20 21 -41l276 -277l277 277q20 20 20 41q0 15 -18 51l20 20l230 -229l-21 -20q-36 18 -51 18q-20 0 -41 -21l-276 -276l276 -276 q21 -21 41 -21q17 0 51 21l21 -23l-230 -229l-20 22q18 31 18 49q0 23 -20 43l-277 277l-276 -277q-7 -7 -14 -21t-7 -22q0 -16 19 -49l-21 -22z" />
<glyph unicode="&#xd8;" horiz-adv-x="1753" d="M92 682q0 148 56.5 282.5t162.5 231.5q210 193 563 193q119 0 207.5 -16t188.5 -60q5 9 16 24t17 27.5t6 26.5q0 52 -74 73v37h422v-37q-51 -7 -79.5 -27.5t-66.5 -68.5l-108 -139q126 -104 192 -243.5t66 -303.5q0 -147 -57 -280.5t-164 -231.5q-210 -195 -559 -195 q-219 0 -389 74q-2 -2 -13.5 -18t-16.5 -23.5t-10.5 -21t-5.5 -23.5q0 -48 72 -61v-39h-424v39q26 3 49.5 13.5t39 19.5t37 31.5t29.5 32t31 40t29 37.5l45 57q-262 217 -262 549zM395 684q0 -104 27.5 -171.5t99.5 -162.5l586 756q-66 31 -111 41t-118 10 q-211 0 -347.5 -132t-136.5 -341zM651 256q65 -28 109 -37.5t114 -9.5q209 0 345.5 131t136.5 340q0 103 -26 169.5t-95 160.5z" />
<glyph unicode="&#xd9;" horiz-adv-x="1671" d="M96 1333v33h426v-33q-32 -8 -48.5 -24.5t-16.5 -46.5v-682q0 -120 10 -167q14 -62 51 -102q92 -102 330 -102q228 0 328 102q29 29 43 77.5t16 81.5t2 93v9v8v682q0 55 -63 71v33h401v-33q-33 -8 -48.5 -24t-15.5 -47v-766q0 -144 -37.5 -247.5t-140.5 -166.5 q-173 -107 -497 -107q-320 0 -498 107q-103 62 -140.5 167t-37.5 247v766q0 55 -64 71zM610 1726v29h293v-29q-1 0 -5 -0.5t-5.5 -1l-4.5 -1.5t-4.5 -2t-3.5 -3t-2.5 -4.5t-0.5 -5.5q0 -12 10.5 -47t25.5 -78t17 -51q8 -24 16.5 -30.5t32.5 -6.5v-27h-201v27q25 0 25 16 q0 11 -6 17l-135 172q-13 16 -22 21t-30 5z" />
<glyph unicode="&#xda;" horiz-adv-x="1671" d="M96 1333v33h426v-33q-32 -8 -48.5 -24.5t-16.5 -46.5v-682q0 -120 10 -167q14 -62 51 -102q92 -102 330 -102q228 0 328 102q29 29 43 77.5t16 81.5t2 93v9v8v682q0 55 -63 71v33h401v-33q-33 -8 -48.5 -24t-15.5 -47v-766q0 -144 -37.5 -247.5t-140.5 -166.5 q-173 -107 -497 -107q-320 0 -498 107q-103 62 -140.5 167t-37.5 247v766q0 55 -64 71zM692 1468v27q24 0 32.5 6.5t16.5 30.5q3 9 17.5 51.5t25.5 77.5t11 47q0 4 -1.5 7t-2.5 4.5t-5 3t-5.5 1.5t-6.5 1t-6 1v29h293v-29q-21 0 -29.5 -5t-21.5 -21l-136 -172q-6 -6 -6 -17 q0 -16 25 -16v-27h-201z" />
<glyph unicode="&#xdb;" horiz-adv-x="1671" d="M96 1333v33h426v-33q-32 -8 -48.5 -24.5t-16.5 -46.5v-682q0 -120 10 -167q14 -62 51 -102q92 -102 330 -102q228 0 328 102q29 29 43 77.5t16 81.5t2 93v9v8v682q0 55 -63 71v33h401v-33q-33 -8 -48.5 -24t-15.5 -47v-766q0 -144 -37.5 -247.5t-140.5 -166.5 q-173 -107 -497 -107q-320 0 -498 107q-103 62 -140.5 167t-37.5 247v766q0 55 -64 71zM528 1468v27q18 0 30 5.5t18 11t22 24.5l127 150q10 10 10 24q0 16 -33 16v29h256v-29q-30 0 -30 -16q0 -8 16 -29l154 -168q10 -12 18.5 -15t26.5 -3v-27h-260v27q32 0 32 14 q0 6 -48 59.5t-64 69.5q-3 -4 -29.5 -34t-47.5 -57t-21 -34q0 -16 18 -16q2 -2 10 -2v-27h-205z" />
<glyph unicode="&#xdc;" horiz-adv-x="1671" d="M96 1333v33h426v-33q-32 -8 -48.5 -24.5t-16.5 -46.5v-682q0 -120 10 -167q14 -62 51 -102q92 -102 330 -102q228 0 328 102q29 29 43 77.5t16 81.5t2 93v9v8v682q0 55 -63 71v33h401v-33q-33 -8 -48.5 -24t-15.5 -47v-766q0 -144 -37.5 -247.5t-140.5 -166.5 q-173 -107 -497 -107q-320 0 -498 107q-103 62 -140.5 167t-37.5 247v766q0 55 -64 71zM467 1610q0 60 41.5 101.5t101.5 41.5t102 -41.5t42 -101.5q0 -58 -43 -101t-101 -43t-100.5 42.5t-42.5 101.5zM918 1610q0 60 41.5 101.5t101.5 41.5t101.5 -41.5t41.5 -101.5 q0 -59 -42.5 -101.5t-100.5 -42.5t-100.5 42.5t-42.5 101.5z" />
<glyph unicode="&#xdd;" d="M-29 1333v33h541v-33q-28 -3 -48 -19t-20 -42q0 -8 2.5 -16t8.5 -18.5t9 -15.5t11.5 -17t9.5 -13l248 -367l252 367q41 59 41 80q0 26 -20 42t-48 19v33h529v-33q-13 -2 -25.5 -5t-24 -10t-20 -11.5t-19.5 -16t-17 -17t-17 -20t-14.5 -19t-15.5 -21.5t-15 -21l-440 -621 v-467q0 -32 16.5 -47.5t48.5 -23.5v-33h-428v33q33 8 49.5 24t16.5 47v467l-443 621q-2 2 -18.5 26t-20.5 28.5t-19 23t-23.5 24.5t-23.5 17t-30.5 15.5t-32.5 6.5zM588 1468v27q23 0 32 7.5t15 29.5q0 1 16.5 48.5t26.5 81t10 44.5q0 12 -6 16.5t-20 6.5v26h292v-26 q-14 -1 -22.5 -4.5t-12.5 -7.5t-14 -17l-135 -172q-6 -6 -6 -17q0 -16 24 -16v-27h-200z" />
<glyph unicode="&#xde;" horiz-adv-x="1464" d="M123 0v33q32 8 47.5 24t15.5 47v1158q0 31 -15.5 47t-47.5 24v33h424v-33q-33 -8 -48.5 -23.5t-15.5 -47.5v-101h387q62 0 104 -2t98 -10t103 -27t87 -49q71 -54 109 -138.5t38 -178.5t-38 -179t-109 -139q-74 -56 -169 -73t-223 -17h-387v-244q0 -31 15.5 -47t48.5 -24 v-33h-424zM483 573h361q47 0 67.5 0.5t59.5 7.5t63 21q38 22 58 64.5t20 89.5t-20 88t-58 63q-24 14 -63 21t-59.5 7.5t-67.5 0.5h-361v-363z" />
<glyph unicode="&#xdf;" horiz-adv-x="2523" d="M66 76l114 274l27 -10q0 -1 -1 -4t-1 -4q0 -23 20 -43q50 -50 184.5 -79.5t231.5 -29.5q30 0 62.5 2.5t76 11t76.5 22.5t56.5 40.5t23.5 60.5q0 16 -5.5 30t-17.5 24.5t-24.5 18.5t-32.5 13.5t-34.5 9.5t-37.5 6.5t-34.5 3.5t-33 3t-26.5 2l-158 14q-66 5 -108 10.5 t-101 21t-100 40.5q-66 40 -101.5 110t-35.5 150q0 79 31.5 143t83 105.5t120 69.5t138 39.5t141.5 11.5q221 0 424 -101l19 -9.5t24 -11.5t20.5 -7t22.5 -4q19 0 41 22l25 -12l-136 -262l-24 12q0 28 -12 43.5t-41 32.5q-145 94 -361 94q-36 0 -78.5 -6.5t-90.5 -20.5 t-79.5 -43t-31.5 -69q0 -57 75 -80q33 -10 93.5 -17t149.5 -12.5t93 -5.5q207 -15 316 -80q68 -41 107.5 -112.5t39.5 -151.5q0 -84 -35.5 -149.5t-91.5 -105.5t-131 -66t-147.5 -36t-147.5 -10q-252 0 -465 97q-36 18 -51 18q-23 0 -37 -24zM1327 76l115 274l24 -10 q0 -30 21 -51q50 -50 184.5 -79.5t231.5 -29.5q30 0 62.5 2.5t76 11t76.5 22.5t56.5 40.5t23.5 60.5q0 16 -5.5 30t-17.5 24.5t-24.5 18.5t-32.5 13.5t-34.5 9.5t-37.5 6.5t-34.5 3.5t-33 3t-26.5 2l-158 14q-6 1 -34 3.5t-36.5 3.5t-34.5 4t-38 5t-34.5 6.5t-36.5 9 t-32.5 10.5t-34 13.5t-30.5 16.5q-65 40 -100 110t-35 150q0 79 31.5 143t83 105.5t120 69.5t138 39.5t141.5 11.5q221 0 424 -101l19 -9.5t24 -11.5t20.5 -7t22.5 -4q16 0 38 22l27 -12l-135 -262l-25 12q0 28 -12 43.5t-41 32.5q-71 47 -167.5 70.5t-192.5 23.5 q-36 0 -78.5 -6.5t-91 -20.5t-80 -43t-31.5 -69q0 -57 76 -80q32 -10 91.5 -17t149 -12.5t93.5 -5.5q208 -15 317 -80q69 -41 108.5 -112.5t39.5 -151.5q0 -84 -35.5 -149.5t-91.5 -105.5t-131 -66t-147.5 -36t-147.5 -10q-231 0 -465 97q-42 18 -51 18q-23 0 -37 -24z" />
<glyph unicode="&#xe0;" horiz-adv-x="1421" d="M6 0v27q22 4 36.5 10t26.5 22t16.5 24t18.5 36l410 827q25 48 25 80q0 45 -58 66v28h437v-28q-56 -22 -56 -68q0 -30 25 -82l424 -803q2 -4 9.5 -18.5t9.5 -18.5t9 -15.5t10.5 -15t10.5 -12t13 -11.5t14.5 -8.5t18 -8t21.5 -4.5v-27h-458v27q65 11 65 63q0 18 -12 48 t-24.5 53t-31 54.5t-20.5 35.5h-514q-80 -160 -80 -191q0 -46 66 -63v-27h-412zM444 1501v29h293v-29q-1 0 -5 -0.5t-5.5 -1l-4.5 -1.5t-4.5 -2t-3.5 -3t-2.5 -4.5t-0.5 -5.5q0 -12 10.5 -47t25.5 -78t17 -51q8 -24 16.5 -30.5t32.5 -6.5v-27h-201v27q25 0 25 16q0 11 -6 17 l-135 172q-13 16 -22 21t-30 5zM510 436h356l-182 361z" />
<glyph unicode="&#xe1;" horiz-adv-x="1421" d="M6 0v27q22 4 36.5 10t26.5 22t16.5 24t18.5 36l410 827q25 48 25 80q0 45 -58 66v28h437v-28q-56 -22 -56 -68q0 -30 25 -82l424 -803q2 -4 9.5 -18.5t9.5 -18.5t9 -15.5t10.5 -15t10.5 -12t13 -11.5t14.5 -8.5t18 -8t21.5 -4.5v-27h-458v27q65 11 65 63q0 18 -12 48 t-24.5 53t-31 54.5t-20.5 35.5h-514q-80 -160 -80 -191q0 -46 66 -63v-27h-412zM510 436h356l-182 361zM608 1243v27q24 0 32.5 6.5t16.5 30.5q3 9 17.5 51.5t25.5 77.5t11 47q0 4 -1.5 7t-2.5 4.5t-5 3t-5.5 1.5t-6.5 1t-6 1v29h293v-29q-21 0 -29.5 -5t-21.5 -21 l-135 -172q-7 -7 -7 -17q0 -16 25 -16v-27h-201z" />
<glyph unicode="&#xe2;" horiz-adv-x="1421" d="M6 0v27q22 4 36.5 10t26.5 22t16.5 24t18.5 36l410 827q25 48 25 80q0 45 -58 66v28h437v-28q-56 -22 -56 -68q0 -30 25 -82l424 -803q2 -4 9.5 -18.5t9.5 -18.5t9 -15.5t10.5 -15t10.5 -12t13 -11.5t14.5 -8.5t18 -8t21.5 -4.5v-27h-458v27q65 11 65 63q0 18 -12 48 t-24.5 53t-31 54.5t-20.5 35.5h-514q-80 -160 -80 -191q0 -46 66 -63v-27h-412zM403 1243v27q18 0 30 5.5t18 11t22 24.5l127 149q10 10 10 25q0 3 -0.5 5.5t-2 4t-3 2.5t-4 2t-4 1.5t-5 0.5h-4.5h-4.5h-4.5v29h256v-29q-31 0 -31 -16q0 -8 16 -29l154 -168q10 -12 18.5 -15 t26.5 -3v-27h-260v27q33 0 33 14q0 6 -48 59t-65 70q-3 -4 -29.5 -34t-47.5 -57t-21 -34q0 -16 18 -16q2 -2 10 -2v-27h-205zM510 436h356l-182 361z" />
<glyph unicode="&#xe3;" horiz-adv-x="1421" d="M6 0v27q22 4 36.5 10t26.5 22t16.5 24t18.5 36l410 827q25 48 25 80q0 45 -58 66v28h437v-28q-56 -22 -56 -68q0 -30 25 -82l424 -803q2 -4 9.5 -18.5t9.5 -18.5t9 -15.5t10.5 -15t10.5 -12t13 -11.5t14.5 -8.5t18 -8t21.5 -4.5v-27h-458v27q65 11 65 63q0 18 -12 48 t-24.5 53t-31 54.5t-20.5 35.5h-514q-80 -160 -80 -191q0 -46 66 -63v-27h-412zM379 1323l10 20q12 -4 17 -4t8.5 1.5t7 5t5 5.5t5 7.5t4.5 7.5q26 42 67 75.5t81 33.5q42 0 97.5 -25.5t107 -50.5t83.5 -25q20 0 33 15.5t13 35.5q0 17 -17 31l12 23l129 -93l-12 -24 q-12 6 -16 6t-20 -21t-36 -46.5t-53 -46.5t-67 -21q-46 0 -148 50t-133 50q-18 0 -34.5 -17.5t-16.5 -35.5q0 -10 14 -29l-10 -20zM510 436h356l-182 361z" />
<glyph unicode="&#xe4;" horiz-adv-x="1421" d="M6 0v27q22 4 36.5 10t26.5 22t16.5 24t18.5 36l410 827q25 48 25 80q0 45 -58 66v28h437v-28q-56 -22 -56 -68q0 -30 25 -82l424 -803q2 -4 9.5 -18.5t9.5 -18.5t9 -15.5t10.5 -15t10.5 -12t13 -11.5t14.5 -8.5t18 -8t21.5 -4.5v-27h-458v27q65 11 65 63q0 18 -12 48 t-24.5 53t-31 54.5t-20.5 35.5h-514q-80 -160 -80 -191q0 -46 66 -63v-27h-412zM342 1337q0 60 41.5 102t101.5 42t102 -42t42 -102q0 -58 -42.5 -100.5t-101.5 -42.5t-101 42t-42 101zM510 436h356l-182 361zM793 1337q0 60 41.5 102t101.5 42t101.5 -42t41.5 -102 q0 -59 -42.5 -101t-100.5 -42t-100.5 42t-42.5 101z" />
<glyph unicode="&#xe5;" horiz-adv-x="1421" d="M6 0v27q22 4 36.5 10t26.5 22t16.5 24t18.5 36l410 827q25 48 25 80q0 45 -58 66v28h437v-28q-56 -22 -56 -68q0 -30 25 -82l424 -803q2 -4 9.5 -18.5t9.5 -18.5t9 -15.5t10.5 -15t10.5 -12t13 -11.5t14.5 -8.5t18 -8t21.5 -4.5v-27h-458v27q65 11 65 63q0 18 -12 48 t-24.5 53t-31 54.5t-20.5 35.5h-514q-80 -160 -80 -191q0 -46 66 -63v-27h-412zM455 1389q0 57 40.5 100t95 62.5t109.5 19.5t110 -19.5t95.5 -62.5t40.5 -100q0 -58 -40.5 -102t-95.5 -63.5t-110 -19.5q-88 0 -166.5 50.5t-78.5 134.5zM510 436h356l-182 361zM559 1389 q0 -48 45 -76.5t96 -28.5t95.5 28.5t44.5 76.5t-44.5 76t-95.5 28t-96 -28t-45 -76z" />
<glyph unicode="&#xe6;" horiz-adv-x="2088" d="M57 0v27q44 8 64.5 26.5t48.5 63.5l502 825q35 58 35 90q0 25 -14 37t-44 23v28h1252q34 0 49.5 15t23.5 49h29v-332h-29q-8 32 -24.5 47.5t-48.5 15.5h-680v-243h421q32 0 49 15.5t25 47.5h29v-323h-29q-8 32 -25 47.5t-49 15.5h-421v-272h710q32 0 49 16t25 49h29v-331 h-29q-8 32 -25 47.5t-49 15.5h-1042v27q33 8 48 25t15 50v179h-405q-1 -1 -22 -34t-37.5 -59.5t-32 -58.5t-15.5 -45q0 -23 17 -37.5t41 -19.5v-27h-441zM643 436h309v479h-32z" />
<glyph unicode="&#xe7;" horiz-adv-x="1427" d="M74 559q0 140 53 252.5t144.5 184t210.5 109.5t255 38q158 0 283 -43q59 -20 119 -51q11 -5 49 -27.5t70 -39.5t42 -17q19 0 39 16l23 -16l-168 -246l-23 16q0 5 1.5 14.5t1.5 14.5q0 37 -62 72q-156 96 -332 96q-84 0 -161 -25t-138.5 -70.5t-98 -117.5t-36.5 -160 t37 -160t98.5 -117.5t139 -70.5t161.5 -25q104 0 207 39q23 9 48 20t59.5 29.5t56 40t21.5 41.5q0 5 -1.5 14.5t-1.5 14.5l23 16l168 -245l-23 -19q-32 19 -39 19q-11 0 -43 -17t-69 -39t-49 -28q-100 -51 -194 -74t-206 -23q-136 0 -255.5 38t-211 109t-145 184t-53.5 253z M532 -406l23 46q58 -15 94 -15q50 0 91.5 19t41.5 63q0 28 -19.5 48t-47.5 20q-42 0 -72 -33l-29 16q50 96 56 107q6 10 8 12.5t7 4t15 1.5q42 0 81 -6t79 -21.5t64 -47t24 -76.5q0 -44 -20.5 -77t-54.5 -51.5t-71.5 -27t-78.5 -8.5q-114 0 -191 26z" />
<glyph unicode="&#xe8;" horiz-adv-x="1314" d="M98 0v27q32 8 48 25.5t16 49.5v916q0 32 -15.5 48t-48.5 26v28h1012q34 0 50 15t26 49h26v-332h-26q-9 32 -26.5 47.5t-49.5 15.5h-680v-243h422q32 0 49.5 15.5t26.5 47.5h26v-323h-28q-8 32 -25 47.5t-49 15.5h-422v-272h711q32 0 49 16t27 49h26v-331h-26 q-9 32 -26.5 47.5t-49.5 15.5h-1043zM432 1501v29h293v-29q-1 0 -6 -1t-6.5 -1t-5.5 -1.5t-5 -3t-2.5 -4.5t-1.5 -7q0 -12 11 -47t25.5 -77.5t17.5 -51.5q8 -24 16.5 -30.5t32.5 -6.5v-27h-201v27q25 0 25 16q0 10 -7 17l-135 172q-13 16 -21.5 21t-29.5 5z" />
<glyph unicode="&#xe9;" horiz-adv-x="1314" d="M98 0v27q32 8 48 25.5t16 49.5v916q0 32 -15.5 48t-48.5 26v28h1012q34 0 50 15t26 49h26v-332h-26q-9 32 -26.5 47.5t-49.5 15.5h-680v-243h422q32 0 49.5 15.5t26.5 47.5h26v-323h-28q-8 32 -25 47.5t-49 15.5h-422v-272h711q32 0 49 16t27 49h26v-331h-26 q-9 32 -26.5 47.5t-49.5 15.5h-1043zM567 1243v27q24 0 32.5 6.5t16.5 30.5q3 9 17.5 51.5t25.5 77.5t11 47q0 4 -1.5 7t-2.5 4.5t-5 3t-5.5 1.5t-6.5 1t-6 1v29h293v-29q-21 0 -29.5 -5t-21.5 -21l-135 -172q-7 -7 -7 -17q0 -16 25 -16v-27h-201z" />
<glyph unicode="&#xea;" horiz-adv-x="1314" d="M98 0v27q32 8 48 25.5t16 49.5v916q0 32 -15.5 48t-48.5 26v28h1012q34 0 50 15t26 49h26v-332h-26q-9 32 -26.5 47.5t-49.5 15.5h-680v-243h422q32 0 49.5 15.5t26.5 47.5h26v-323h-28q-8 32 -25 47.5t-49 15.5h-422v-272h711q32 0 49 16t27 49h26v-331h-26 q-9 32 -26.5 47.5t-49.5 15.5h-1043zM377 1243v27q18 0 30 5.5t17 10.5t22 25l127 149q11 11 11 25q0 16 -33 16v29h256v-29q-31 0 -31 -16q0 -6 17 -29l153 -168q10 -12 18.5 -15t26.5 -3v-27h-260v27q33 0 33 14q0 6 -48 59t-65 70q-3 -4 -29.5 -34t-47.5 -57t-21 -34 q0 -16 18 -16q2 -2 11 -2v-27h-205z" />
<glyph unicode="&#xeb;" horiz-adv-x="1314" d="M98 0v27q32 8 48 25.5t16 49.5v916q0 32 -15.5 48t-48.5 26v28h1012q34 0 50 15t26 49h26v-332h-26q-9 32 -26.5 47.5t-49.5 15.5h-680v-243h422q32 0 49.5 15.5t26.5 47.5h26v-323h-28q-8 32 -25 47.5t-49 15.5h-422v-272h711q32 0 49 16t27 49h26v-331h-26 q-9 32 -26.5 47.5t-49.5 15.5h-1043zM315 1337q0 60 42 102t102 42t101.5 -42t41.5 -102q0 -59 -42 -101t-101 -42t-101.5 42.5t-42.5 100.5zM766 1337q0 60 41.5 102t101.5 42t102 -42t42 -102q0 -58 -42.5 -100.5t-101.5 -42.5t-101 42t-42 101z" />
<glyph unicode="&#xec;" horiz-adv-x="591" d="M31 1501v29h293v-29q-1 0 -6 -1t-6.5 -1t-5.5 -1.5t-5 -3t-2.5 -4.5t-1.5 -7q0 -12 10.5 -47t25.5 -78t17 -51q8 -24 16.5 -30.5t32.5 -6.5v-27h-200v27q24 0 24 16q0 11 -6 17l-135 172q-13 16 -21.5 21t-29.5 5zM98 0v27q32 8 48 25.5t16 49.5v916q0 32 -15.5 48 t-48.5 26v28h396v-28q-32 -8 -48 -25t-16 -49v-916q0 -32 15.5 -48.5t48.5 -26.5v-27h-396z" />
<glyph unicode="&#xed;" horiz-adv-x="591" d="M98 0v27q32 8 48 25.5t16 49.5v916q0 32 -15.5 48t-48.5 26v28h396v-28q-32 -8 -48 -25t-16 -49v-916q0 -32 15.5 -48.5t48.5 -26.5v-27h-396zM193 1243v27q24 0 32.5 6.5t16.5 30.5q2 8 17 51t25.5 78t10.5 47q0 4 -1.5 7t-2.5 4.5t-5 3t-5.5 1.5t-6.5 1t-6 1v29h293 v-29q-21 0 -29.5 -5t-21.5 -21l-135 -172q-6 -6 -6 -17q0 -16 24 -16v-27h-200z" />
<glyph unicode="&#xee;" horiz-adv-x="591" d="M-10 1243v27q18 0 30 5.5t17 10.5t22 25l127 149q11 11 11 25q0 16 -33 16v29h256v-29q-31 0 -31 -16q0 -6 17 -29l153 -168q10 -12 18.5 -15t26.5 -3v-27h-260v27q33 0 33 14q0 6 -48 59t-65 70q-3 -4 -29.5 -34t-47.5 -57t-21 -34q0 -16 18 -16q2 -2 11 -2v-27h-205z M98 0v27q32 8 48 25.5t16 49.5v916q0 32 -15.5 48t-48.5 26v28h396v-28q-32 -8 -48 -25t-16 -49v-916q0 -32 15.5 -48.5t48.5 -26.5v-27h-396z" />
<glyph unicode="&#xef;" horiz-adv-x="591" d="M-31 1337q0 60 42 102t102 42q58 0 100.5 -42.5t42.5 -101.5t-42 -101t-101 -42t-101.5 42.5t-42.5 100.5zM98 0v27q32 8 48 25.5t16 49.5v916q0 32 -15.5 48t-48.5 26v28h396v-28q-32 -8 -48 -25t-16 -49v-916q0 -32 15.5 -48.5t48.5 -26.5v-27h-396zM338 1337 q0 60 41.5 102t101.5 42q59 0 101.5 -42.5t42.5 -101.5q0 -58 -42.5 -100.5t-101.5 -42.5t-101 42t-42 101z" />
<glyph unicode="&#xf0;" horiz-adv-x="1441" d="M31 387v332h32q6 -23 14 -36.5t22.5 -19.5t27 -7t37.5 -1v363q0 32 -15.5 49t-48.5 27v26h654q138 0 248 -26t194 -99q172 -150 172 -434q0 -285 -172 -436q-84 -74 -192 -99.5t-250 -25.5h-654v27q32 9 48 26.5t16 48.5v351h-29q-55 0 -72 -66h-32zM432 203h285 q188 0 283.5 86t95.5 272t-96 271.5t-283 85.5h-285v-263h154q32 0 47.5 15.5t23.5 48.5h33v-332h-33q-8 34 -23.5 50t-47.5 16h-154v-250z" />
<glyph unicode="&#xf1;" horiz-adv-x="1523" d="M98 0v27q32 8 48 25.5t16 49.5v916q0 32 -15.5 48t-48.5 26v28h430v-28q-15 -5 -21.5 -7t-15 -11t-8.5 -21q0 -25 33 -58l600 -594v617q0 32 -15 48t-48 26v28h372v-28q-33 -8 -49 -25t-16 -49v-916q0 -32 16 -48.5t49 -26.5v-27h-401v27q43 7 43 39q0 9 -9.5 23t-18 23 t-24 24t-16.5 16l-593 585v-635q0 -32 16 -48.5t49 -26.5v-27h-373zM401 1323l11 20q12 -4 16 -4t7.5 1.5t6 3t5.5 5t4 5t4 6.5t4 6q26 42 66.5 75.5t80.5 33.5q42 0 98 -25.5t107.5 -50.5t83.5 -25q19 0 32 15.5t13 35.5q0 18 -16 31l12 23l129 -93l-12 -24q-12 6 -17 6 q-4 0 -20 -21t-36 -46.5t-53 -46.5t-67 -21q-46 0 -148 50t-132 50q-18 0 -35 -17.5t-17 -35.5q0 -9 15 -29l-11 -20z" />
<glyph unicode="&#xf2;" d="M74 559q0 138 52.5 250t142.5 184t208 111t252 39t252 -38.5t209 -110.5t143.5 -184.5t52.5 -250.5t-52.5 -250.5t-143 -184.5t-208.5 -110.5t-253 -38.5q-134 0 -252 39t-208 111t-142.5 184t-52.5 250zM346 559q0 -162 110 -266.5t273 -104.5q165 0 275 103.5 t110 267.5q0 165 -109.5 269t-275.5 104q-165 0 -274 -104.5t-109 -268.5zM477 1501v29h293v-29q-1 0 -6 -1t-6.5 -1t-5.5 -1.5t-5 -3t-2.5 -4.5t-1.5 -7q0 -12 11 -47t25.5 -77.5t17.5 -51.5q8 -24 16.5 -30.5t32.5 -6.5v-27h-201v27q25 0 25 16q0 11 -6 17l-136 172 q-13 16 -21.5 21t-29.5 5z" />
<glyph unicode="&#xf3;" d="M74 559q0 138 52.5 250t142.5 184t208 111t252 39t252 -38.5t209 -110.5t143.5 -184.5t52.5 -250.5t-52.5 -250.5t-143 -184.5t-208.5 -110.5t-253 -38.5q-134 0 -252 39t-208 111t-142.5 184t-52.5 250zM346 559q0 -162 110 -266.5t273 -104.5q165 0 275 103.5 t110 267.5q0 165 -109.5 269t-275.5 104q-165 0 -274 -104.5t-109 -268.5zM612 1243v27q25 0 33.5 7t16.5 30q2 8 17 51t25.5 78t10.5 47q0 4 -1.5 7t-2.5 4.5t-5 3t-5.5 1.5t-6.5 1t-6 1v29h293v-29q-21 0 -29.5 -5t-21.5 -21l-135 -172q-7 -7 -7 -17q0 -16 25 -16v-27 h-201z" />
<glyph unicode="&#xf4;" d="M74 559q0 138 52.5 250t142.5 184t208 111t252 39t252 -38.5t209 -110.5t143.5 -184.5t52.5 -250.5t-52.5 -250.5t-143 -184.5t-208.5 -110.5t-253 -38.5q-134 0 -252 39t-208 111t-142.5 184t-52.5 250zM346 559q0 -162 110 -266.5t273 -104.5q165 0 275 103.5 t110 267.5q0 165 -109.5 269t-275.5 104q-165 0 -274 -104.5t-109 -268.5zM422 1243v27q18 0 30 5.5t18 11t22 24.5l126 149q11 11 11 25q0 16 -33 16v29h256v-29q-31 0 -31 -16q0 -6 17 -29l153 -168q10 -12 18.5 -15t26.5 -3v-27h-260v27q33 0 33 14q0 6 -48 59t-65 70 q-3 -4 -29.5 -34t-47.5 -57t-21 -34q0 -16 18 -16q2 -2 11 -2v-27h-205z" />
<glyph unicode="&#xf5;" d="M74 559q0 138 52.5 250t142.5 184t208 111t252 39t252 -38.5t209 -110.5t143.5 -184.5t52.5 -250.5t-52.5 -250.5t-143 -184.5t-208.5 -110.5t-253 -38.5q-134 0 -252 39t-208 111t-142.5 184t-52.5 250zM346 559q0 -162 110 -266.5t273 -104.5q165 0 275 103.5 t110 267.5q0 165 -109.5 269t-275.5 104q-165 0 -274 -104.5t-109 -268.5zM397 1323l11 20q12 -4 16 -4t7.5 1.5t6 3t5.5 5t4 5t4 6.5t4 6q26 42 66.5 75.5t80.5 33.5q42 0 98 -25.5t107.5 -50.5t83.5 -25q19 0 32 15.5t13 35.5q0 18 -16 31l12 23l129 -93l-12 -24 q-12 6 -17 6q-4 0 -20 -21t-36 -46.5t-53 -46.5t-67 -21q-46 0 -148 50t-133 50q-18 0 -34.5 -17.5t-16.5 -35.5q0 -9 15 -29l-11 -20z" />
<glyph unicode="&#xf6;" d="M74 559q0 138 52.5 250t142.5 184t208 111t252 39t252 -38.5t209 -110.5t143.5 -184.5t52.5 -250.5t-52.5 -250.5t-143 -184.5t-208.5 -110.5t-253 -38.5q-134 0 -252 39t-208 111t-142.5 184t-52.5 250zM346 559q0 -162 110 -266.5t273 -104.5q165 0 275 103.5 t110 267.5q0 165 -109.5 269t-275.5 104q-165 0 -274 -104.5t-109 -268.5zM360 1337q0 60 42 102t102 42t101.5 -42t41.5 -102q0 -59 -42.5 -101t-100.5 -42q-59 0 -101.5 42.5t-42.5 100.5zM811 1337q0 60 41.5 102t101.5 42t102 -42t42 -102q0 -58 -42.5 -100.5 t-101.5 -42.5q-58 0 -100.5 42t-42.5 101z" />
<glyph unicode="&#xf7;" horiz-adv-x="1570" d="M233 520v326h31q7 -32 21.5 -49t44.5 -17h909q30 0 45 16.5t23 49.5h28v-326h-28q-8 33 -22.5 48.5t-45.5 15.5h-909q-30 0 -44 -15.5t-22 -48.5h-31zM621 264q0 67 47.5 114.5t115.5 47.5t116 -47t48 -115t-48.5 -117t-115.5 -49q-68 0 -115.5 49t-47.5 117zM621 1104 q0 67 47.5 114.5t115.5 47.5t116 -47t48 -115t-48.5 -117t-115.5 -49q-68 0 -115.5 49t-47.5 117z" />
<glyph unicode="&#xf8;" horiz-adv-x="1427" d="M57 559q0 139 53 251.5t144 184t209.5 110t253.5 38.5q98 0 159.5 -12.5t155.5 -49.5q31 41 31 62q0 23 -19 39.5t-43 21.5v25h355v-25q-43 -6 -66.5 -22.5t-54.5 -55.5q-15 -19 -43.5 -56.5t-42.5 -55.5q221 -164 221 -455q0 -137 -52.5 -249t-142.5 -184.5 t-207.5 -111.5t-250.5 -39q-174 0 -322 64q-37 -46 -37 -72q0 -40 60 -53v-23h-355v23q39 7 66 23q19 12 42 36t36 40.5t39.5 52.5t29.5 40q-219 171 -219 453zM330 561q0 -80 22 -130.5t78 -127.5l459 592q-52 22 -86.5 29.5t-89.5 7.5q-165 0 -274 -103.5t-109 -267.5z M539 225q50 -22 85 -29.5t89 -7.5q165 0 275 103.5t110 267.5q0 79 -22 130t-79 128z" />
<glyph unicode="&#xf9;" horiz-adv-x="1413" d="M76 1092v28h397v-28q-33 -8 -49 -25t-16 -49v-539q0 -55 2.5 -86t19.5 -72.5t51 -68.5q82 -64 238 -64q154 0 237 64q33 26 49.5 67.5t19.5 74t3 85.5v539q0 32 -15 48t-48 26v28h372v-28q-33 -10 -48 -26t-15 -48v-594q0 -138 -38 -230t-144 -145q-152 -74 -385 -74 q-241 0 -385 74q-105 53 -143 146t-38 229v594q0 32 -16 48t-49 26zM483 1501v29h293v-29q-1 0 -5 -0.5t-5.5 -1l-4.5 -1.5t-4.5 -2t-3.5 -3t-2.5 -4.5t-0.5 -5.5q0 -12 10.5 -47t25.5 -78t17 -51q8 -24 16.5 -30.5t32.5 -6.5v-27h-201v27q25 0 25 16q0 11 -6 17l-135 172 q-13 16 -22 21t-30 5z" />
<glyph unicode="&#xfa;" horiz-adv-x="1413" d="M76 1092v28h397v-28q-33 -8 -49 -25t-16 -49v-539q0 -55 2.5 -86t19.5 -72.5t51 -68.5q82 -64 238 -64q154 0 237 64q33 26 49.5 67.5t19.5 74t3 85.5v539q0 32 -15 48t-48 26v28h372v-28q-33 -10 -48 -26t-15 -48v-594q0 -138 -38 -230t-144 -145q-152 -74 -385 -74 q-241 0 -385 74q-105 53 -143 146t-38 229v594q0 32 -16 48t-49 26zM590 1243v27q24 0 32.5 6.5t16.5 30.5q2 8 17 51t25.5 78t10.5 47q0 3 -0.5 5.5t-2.5 4.5t-3.5 3t-4.5 2l-4.5 1.5t-5.5 1t-5 0.5v29h292v-29q-21 0 -29.5 -5t-21.5 -21l-135 -172q-6 -6 -6 -17 q0 -16 25 -16v-27h-201z" />
<glyph unicode="&#xfb;" horiz-adv-x="1413" d="M76 1092v28h397v-28q-33 -8 -49 -25t-16 -49v-539q0 -55 2.5 -86t19.5 -72.5t51 -68.5q82 -64 238 -64q154 0 237 64q33 26 49.5 67.5t19.5 74t3 85.5v539q0 32 -15 48t-48 26v28h372v-28q-33 -10 -48 -26t-15 -48v-594q0 -138 -38 -230t-144 -145q-152 -74 -385 -74 q-241 0 -385 74q-105 53 -143 146t-38 229v594q0 32 -16 48t-49 26zM399 1243v27q18 0 30 5.5t18 11t22 24.5l127 149q10 10 10 25q0 16 -33 16v29h256v-29q-30 0 -30 -16q0 -8 16 -29l154 -168q10 -12 18.5 -15t26.5 -3v-27h-260v27q32 0 32 14q0 6 -48 59.5t-64 69.5 q-3 -4 -29.5 -34t-48 -57t-21.5 -34q0 -16 19 -16q2 -2 10 -2v-27h-205z" />
<glyph unicode="&#xfc;" horiz-adv-x="1413" d="M76 1092v28h397v-28q-33 -8 -49 -25t-16 -49v-539q0 -55 2.5 -86t19.5 -72.5t51 -68.5q82 -64 238 -64q154 0 237 64q33 26 49.5 67.5t19.5 74t3 85.5v539q0 32 -15 48t-48 26v28h372v-28q-33 -10 -48 -26t-15 -48v-594q0 -138 -38 -230t-144 -145q-152 -74 -385 -74 q-241 0 -385 74q-105 53 -143 146t-38 229v594q0 32 -16 48t-49 26zM338 1337q0 60 41.5 102t101.5 42t102 -42t42 -102q0 -58 -42.5 -100.5t-101.5 -42.5t-101 42t-42 101zM788 1337q0 60 42 102t102 42t101.5 -42t41.5 -102q0 -59 -42.5 -101t-100.5 -42 q-59 0 -101.5 42.5t-42.5 100.5z" />
<glyph unicode="&#xfd;" horiz-adv-x="1226" d="M-23 1094v26h506v-28q-65 -12 -65 -60q0 -8 3 -17t10 -20.5t11 -18t13 -19t10 -13.5l162 -227l159 227q2 3 10 14t13 18.5t11.5 18t10 20t3.5 17.5q0 44 -66 60v28h481v-26q-36 -8 -70.5 -35t-51 -47t-48.5 -64l-331 -456v-390q0 -32 15 -48.5t48 -26.5v-27h-395v27 q33 10 48 26.5t15 48.5v390l-332 456q-19 27 -28 38.5t-28 34t-33.5 33.5t-36 23t-44.5 17zM496 1243v27q23 0 32 7.5t17 29.5q3 10 17 51.5t25 77.5t11 45t-4 13.5t-8.5 6t-14.5 2.5v27h293v-27q-22 -2 -30.5 -6.5t-20.5 -21.5q-2 -3 -21.5 -26.5t-37 -45.5t-38 -48 t-32.5 -44.5t-12 -24.5q0 -16 24 -16v-27h-200z" />
<glyph unicode="&#xfe;" horiz-adv-x="1239" d="M98 0v27q33 10 48.5 26.5t15.5 48.5v916q0 32 -15.5 48t-48.5 26v28h396v-28q-20 -5 -33 -14t-20 -18t-10 -25.5t-3 -27t1 -32.5t1 -33h295q75 0 136 -7.5t124 -29t106 -56.5t70 -95.5t27 -141.5q0 -79 -27 -139t-69.5 -95.5t-105 -57.5t-124.5 -29.5t-137 -7.5h-295 v-181q0 -32 15.5 -48.5t48.5 -26.5v-27h-396zM430 485h287q35 0 57.5 1.5t53.5 8t49 19.5t31.5 38t13.5 60q0 36 -13.5 61t-31 37.5t-49.5 19.5t-53.5 8t-57.5 1h-287v-254z" />
<glyph unicode="&#xff;" horiz-adv-x="1226" d="M-23 1092v28h504v-28q-63 -15 -63 -62q0 -10 6 -23.5t11 -21.5t17 -24.5t13 -18.5l162 -225l159 225q2 3 18 24.5t23 36.5t7 29q0 44 -66 60v28h479v-28q-27 -5 -50.5 -18t-47.5 -39t-34.5 -39.5t-35.5 -47.5l-331 -456v-390q0 -32 15 -48.5t48 -26.5v-27h-395v27 q33 10 48 26.5t15 48.5v390l-332 456q-31 42 -48.5 63t-51.5 47t-70 34zM244 1337q0 60 41.5 102t101.5 42t101.5 -42t41.5 -102q0 -59 -42 -101t-101 -42t-101 42t-42 101zM694 1337q0 60 42 102t102 42t101.5 -42t41.5 -102q0 -59 -42.5 -101t-100.5 -42 q-59 0 -101.5 42.5t-42.5 100.5z" />
<glyph unicode="&#x152;" horiz-adv-x="2435" d="M92 682q0 160 62.5 292.5t168.5 218.5t245.5 133.5t295.5 47.5q34 0 101.5 -4t101.5 -4h1151q32 0 48 15.5t24 48.5h32v-353h-32q-8 33 -24 48.5t-48 15.5h-854v-326h553q32 0 48 16t26 50h30v-346h-30q-10 33 -26 49t-48 16h-553v-375h879q32 0 47.5 15.5t23.5 48.5h33 v-352h-33q-8 32 -24 47.5t-47 15.5h-1176q-35 0 -104.5 -4t-104.5 -4q-154 0 -292.5 47.5t-244 134t-167.5 218.5t-62 290zM395 682q0 -224 137 -345.5t365 -121.5q75 0 170 10v916q-92 10 -166 10q-230 0 -368 -121.5t-138 -347.5z" />
<glyph unicode="&#x153;" horiz-adv-x="2007" d="M57 559q0 131 53 240t143 180t205.5 110t243.5 39q20 0 60 -4t61 -4h998q33 0 49.5 15t25.5 49h27v-332h-27q-10 33 -26.5 48t-48.5 15h-684v-243h422q32 0 48.5 15t26.5 48h27v-323h-27q-15 63 -75 63h-422v-272h710q32 0 49 16t27 49h27v-331h-27q-9 33 -26 48t-50 15 h-981q-28 0 -82 -4t-82 -4q-129 0 -244.5 38t-205 108t-142.5 179t-53 242zM330 559q0 -172 111.5 -269t285.5 -97q73 0 143 12v710q-76 13 -141 13q-176 0 -287.5 -97.5t-111.5 -271.5z" />
<glyph unicode="&#x178;" d="M-27 1333v33h539v-33q-28 -3 -48 -19t-20 -42q0 -13 6 -26.5t19 -31.5t16 -22l248 -367l252 367q2 2 8 10.5t9 13.5t8.5 13.5t8.5 14.5t5 14t2 14q0 26 -20 42t-48 19v33h529v-33q-17 -2 -31.5 -7t-29.5 -16t-24 -17.5t-23.5 -24t-19 -23.5t-20.5 -28t-18 -25l-442 -621 v-467q0 -32 16.5 -47.5t48.5 -23.5v-33h-428v33q33 8 49.5 24t16.5 47v467l-443 621q-1 1 -16 21.5t-18 24.5t-16.5 21t-20 22.5t-20 17.5t-23.5 16.5t-24 10t-28 7.5zM360 1610q0 60 42 101.5t102 41.5t101.5 -41.5t41.5 -101.5q0 -59 -42.5 -101.5t-100.5 -42.5t-101 43 t-43 101zM811 1610q0 60 41.5 101.5t101.5 41.5t102 -41.5t42 -101.5q0 -58 -43 -101t-101 -43t-100.5 42.5t-42.5 101.5z" />
<glyph unicode="&#x2c6;" horiz-adv-x="1024" d="M205 1243v27q18 0 30 5.5t17 10.5t22 25l127 149q11 11 11 25q0 16 -33 16v29h256v-29q-31 0 -31 -16q0 -6 17 -29l153 -168q10 -12 18.5 -15t26.5 -3v-27h-260v27q33 0 33 14q0 6 -48 59t-65 70q-3 -4 -29.5 -34t-47.5 -57t-21 -34q0 -16 18 -16q2 -2 11 -2v-27h-205z " />
<glyph unicode="&#x2dc;" horiz-adv-x="1024" d="M180 1323l10 20q12 -4 17 -4q4 0 7.5 1.5t6 3t5.5 5t4 5t4 6.5t4 6q26 42 66.5 75.5t80.5 33.5q42 0 98 -25.5t107.5 -50.5t83.5 -25q19 0 32 15.5t13 35.5q0 17 -17 31l13 23l129 -93l-13 -24q-12 6 -16 6t-20.5 -21t-36 -46.5t-52.5 -46.5t-67 -21q-45 0 -148 50 t-133 50q-18 0 -34.5 -17.5t-16.5 -35.5q0 -9 15 -29l-11 -20z" />
<glyph unicode="&#x2000;" horiz-adv-x="923" />
<glyph unicode="&#x2001;" horiz-adv-x="1847" />
<glyph unicode="&#x2002;" horiz-adv-x="923" />
<glyph unicode="&#x2003;" horiz-adv-x="1847" />
<glyph unicode="&#x2004;" horiz-adv-x="615" />
<glyph unicode="&#x2005;" horiz-adv-x="461" />
<glyph unicode="&#x2006;" horiz-adv-x="307" />
<glyph unicode="&#x2007;" horiz-adv-x="307" />
<glyph unicode="&#x2008;" horiz-adv-x="230" />
<glyph unicode="&#x2009;" horiz-adv-x="369" />
<glyph unicode="&#x200a;" horiz-adv-x="102" />
<glyph unicode="&#x2010;" horiz-adv-x="454" d="M0 387v346h33q8 -33 23.5 -49t47.5 -16h246q32 0 48 16t26 49h31v-346h-31q-10 33 -26 48.5t-48 15.5h-246q-55 0 -71 -64h-33z" />
<glyph unicode="&#x2011;" horiz-adv-x="454" d="M0 387v346h33q8 -33 23.5 -49t47.5 -16h246q32 0 48 16t26 49h31v-346h-31q-10 33 -26 48.5t-48 15.5h-246q-55 0 -71 -64h-33z" />
<glyph unicode="&#x2012;" horiz-adv-x="454" d="M0 387v346h33q8 -33 23.5 -49t47.5 -16h246q32 0 48 16t26 49h31v-346h-31q-10 33 -26 48.5t-48 15.5h-246q-55 0 -71 -64h-33z" />
<glyph unicode="&#x2013;" horiz-adv-x="1570" d="M233 520v326h31q7 -32 21.5 -49t44.5 -17h909q30 0 45 16.5t23 49.5h28v-326h-28q-8 33 -22.5 48.5t-45.5 15.5h-909q-30 0 -44 -15.5t-22 -48.5h-31z" />
<glyph unicode="&#x2014;" horiz-adv-x="1361" d="M0 389v340h33q8 -33 23.5 -48t47.5 -15h1153q56 0 72 63h33v-340h-33q-8 32 -24 49t-48 17h-1153q-31 0 -47 -16.5t-24 -49.5h-33z" />
<glyph unicode="&#x2018;" horiz-adv-x="628" d="M150 1006q0 219 233 383l47 -64q-76 -48 -115.5 -101.5t-52.5 -136.5q50 13 70 13q69 0 107 -48t38 -118q0 -72 -38.5 -117t-108.5 -45q-90 0 -135 69.5t-45 164.5z" />
<glyph unicode="&#x2019;" horiz-adv-x="628" d="M150 1227q0 71 39.5 116.5t109.5 45.5q88 0 133 -70t45 -164q0 -218 -231 -383l-49 64q80 52 116.5 101t53.5 136q-46 -12 -70 -12q-69 0 -108 47.5t-39 118.5z" />
<glyph unicode="&#x201a;" horiz-adv-x="628" d="M150 141q0 71 39.5 116.5t109.5 45.5q88 0 133 -69.5t45 -163.5q0 -218 -231 -383l-49 63q80 52 116.5 101t53.5 137q-50 -13 -70 -13q-69 0 -108 47.5t-39 118.5z" />
<glyph unicode="&#x201c;" horiz-adv-x="1105" d="M150 1006q0 219 233 383l47 -64q-76 -48 -115.5 -101.5t-52.5 -136.5q50 13 70 13q69 0 107 -48t38 -118q0 -72 -38.5 -117t-108.5 -45q-90 0 -135 69.5t-45 164.5zM629 1006q0 218 231 383l49 -64q-75 -45 -114 -99t-56 -139q50 13 70 13q69 0 108 -47.5t39 -118.5 t-39.5 -116.5t-109.5 -45.5q-88 0 -133 70t-45 164z" />
<glyph unicode="&#x201d;" horiz-adv-x="1105" d="M150 1227q0 71 39.5 116.5t109.5 45.5q88 0 133 -70t45 -164q0 -218 -231 -383l-49 64q80 52 116.5 101t53.5 136q-46 -12 -70 -12q-69 0 -108 47.5t-39 118.5zM629 1227q0 72 38.5 117t108.5 45q90 0 135 -69.5t45 -164.5q0 -219 -233 -383l-47 64q78 51 116.5 102 t51.5 135q-46 -12 -70 -12q-69 0 -107 48t-38 118z" />
<glyph unicode="&#x201e;" horiz-adv-x="1105" d="M150 141q0 71 39.5 116.5t109.5 45.5q88 0 133 -69.5t45 -163.5q0 -218 -231 -383l-49 63q80 52 116.5 101t53.5 137q-50 -13 -70 -13q-69 0 -108 47.5t-39 118.5zM629 141q0 72 38.5 117t108.5 45q90 0 135 -69t45 -164q0 -219 -233 -383l-47 63q78 51 116.5 102.5 t51.5 135.5q-50 -13 -70 -13q-69 0 -107 48t-38 118z" />
<glyph unicode="&#x2022;" horiz-adv-x="1366" d="M401 696q0 118 82.5 202.5t200.5 84.5q116 0 198.5 -85.5t82.5 -201.5t-82.5 -201t-198.5 -85q-118 0 -200.5 84t-82.5 202z" />
<glyph unicode="&#x2026;" horiz-adv-x="1884" d="M150 141q0 67 47.5 114.5t115.5 47.5t116 -47t48 -115t-48.5 -117t-115.5 -49q-68 0 -115.5 49t-47.5 117zM778 141q0 67 48 114.5t116 47.5t116 -47.5t48 -114.5q0 -68 -48.5 -117t-115.5 -49q-68 0 -116 49t-48 117zM1407 141q0 68 48 115t116 47t116 -47.5t48 -114.5 q0 -68 -48.5 -117t-115.5 -49q-68 0 -116 49t-48 117z" />
<glyph unicode="&#x202f;" horiz-adv-x="369" />
<glyph unicode="&#x2039;" horiz-adv-x="638" d="M123 580l194 403h172l-196 -403l196 -402h-172z" />
<glyph unicode="&#x203a;" horiz-adv-x="638" d="M150 178l196 402l-196 403h174l192 -403l-192 -402h-174z" />
<glyph unicode="&#x205f;" horiz-adv-x="461" />
<glyph unicode="&#x2122;" horiz-adv-x="2082" d="M2 1190v211h31q7 -20 14.5 -27.5t26.5 -7.5h708q19 0 27 7.5t14 27.5h31v-211h-31q-5 20 -13 27.5t-28 7.5h-254v-572q0 -17 9.5 -24.5t29.5 -12.5v-28h-278v28q15 4 21.5 6.5t13 10t6.5 20.5v572h-256q-20 0 -28 -7.5t-13 -27.5h-31zM926 588v28q14 4 20.5 7t13.5 10.5 t7 19.5v647q0 27 -41 35v31h340v-31q-29 -4 -29 -24q0 -7 8 -23l223 -375l230 367q14 23 14 35q0 18 -31 18v33h332v-31q-14 -2 -21 -4.5t-12.5 -10t-5.5 -20.5v-647q0 -13 6 -20.5t12 -10t21 -6.5v-28h-276v28q15 4 21 6.5t12 10t6 20.5v447l-322 -508l-305 506v-445 q0 -13 6 -20.5t12 -10t21 -6.5v-28h-262z" />
<glyph unicode="&#x25fc;" horiz-adv-x="1116" d="M0 0v1116h1116v-1116h-1116z" />
<glyph unicode="&#xfb01;" horiz-adv-x="1841" d="M98 0v27q32 8 48 25.5t16 49.5v916q0 32 -15.5 48t-48.5 26v28h1004q34 0 50 15t26 49h26v-332h-26q-9 32 -26.5 47.5t-49.5 15.5h-672v-243h422q32 0 49.5 15.5t26.5 47.5h26v-323h-28q-8 32 -25 47.5t-49 15.5h-422v-373q0 -32 15.5 -48.5t48.5 -26.5v-27h-396zM1346 0 v27q63 15 63 75v916q0 32 -15 48t-48 26v28h395v-28q-32 -8 -48 -25t-16 -49v-916q0 -32 15.5 -48.5t48.5 -26.5v-27h-395z" />
<glyph unicode="&#xfb02;" horiz-adv-x="2424" d="M98 0v27q32 8 48 25.5t16 49.5v916q0 32 -15.5 48t-48.5 26v28h1004q34 0 50 15t26 49h26v-332h-26q-9 32 -26.5 47.5t-49.5 15.5h-672v-243h422q32 0 49.5 15.5t26.5 47.5h26v-323h-28q-8 32 -25 47.5t-49 15.5h-422v-373q0 -32 15.5 -48.5t48.5 -26.5v-27h-396zM1346 0 v27q63 15 63 75v916q0 32 -15 48t-48 26v28h395v-28q-32 -8 -48 -25t-16 -49v-815h627q33 0 49.5 16t26.5 49h26v-331h-26q-9 34 -25.5 48.5t-50.5 14.5h-958z" />
</font>
</defs>
</svg>
